
<svg width="34" height="33" viewBox="0 0 34 33" fill="none" xmlns="http://www.w3.org/2000/svg">
<mask id="path-1-inside-1_648_769" fill="white">
<path d="M32.2414 12.375H28.1379V11.6875C28.1379 11.5052 28.0762 11.3303 27.9662 11.2014C27.8563 11.0724 27.7072 11 27.5517 11H18.1724C18.0169 11 17.8678 11.0724 17.7579 11.2014C17.648 11.3303 17.5862 11.5052 17.5862 11.6875V12.375H7.03448V4.125C7.03448 3.39565 7.28153 2.69618 7.72127 2.18046C8.16101 1.66473 8.75742 1.375 9.37931 1.375C10.0012 1.375 10.5976 1.66473 11.0374 2.18046C11.4771 2.69618 11.7241 3.39565 11.7241 4.125C11.7241 4.30734 11.7859 4.4822 11.8958 4.61114C12.0058 4.74007 12.1549 4.8125 12.3103 4.8125C12.4658 4.8125 12.6149 4.74007 12.7249 4.61114C12.8348 4.4822 12.8966 4.30734 12.8966 4.125C12.8966 3.03098 12.526 1.98177 11.8664 1.20818C11.2068 0.434597 10.3121 0 9.37931 0C8.44648 0 7.55186 0.434597 6.89225 1.20818C6.23263 1.98177 5.86207 3.03098 5.86207 4.125V12.375H1.75862C1.29221 12.375 0.844893 12.5923 0.515088 12.9791C0.185283 13.3659 0 13.8905 0 14.4375V19.9375C0 22.3079 0.802892 24.5812 2.23205 26.2573C3.66121 27.9334 5.59956 28.875 7.62069 28.875H8.2069V32.3125C8.2069 32.4948 8.26866 32.6697 8.37859 32.7986C8.48853 32.9276 8.63763 33 8.7931 33C8.94858 33 9.09768 32.9276 9.20762 32.7986C9.31755 32.6697 9.37931 32.4948 9.37931 32.3125V28.875H24.6207V32.3125C24.6207 32.4948 24.6825 32.6697 24.7924 32.7986C24.9023 32.9276 25.0514 33 25.2069 33C25.3624 33 25.5115 32.9276 25.6214 32.7986C25.7313 32.6697 25.7931 32.4948 25.7931 32.3125V28.875H26.3793C28.4004 28.875 30.3388 27.9334 31.768 26.2573C33.1971 24.5812 34 22.3079 34 19.9375V14.4375C34 13.8905 33.8147 13.3659 33.4849 12.9791C33.1551 12.5923 32.7078 12.375 32.2414 12.375ZM18.7586 12.375H26.9655V19.25H18.7586V12.375ZM32.8276 19.9375C32.8276 21.9432 32.1482 23.8668 30.9389 25.285C29.7296 26.7032 28.0895 27.5 26.3793 27.5H7.62069C5.9105 27.5 4.27036 26.7032 3.06107 25.285C1.85178 23.8668 1.17241 21.9432 1.17241 19.9375V14.4375C1.17241 14.2552 1.23417 14.0803 1.34411 13.9514C1.45405 13.8224 1.60315 13.75 1.75862 13.75H17.5862V19.9375C17.5862 20.1198 17.648 20.2947 17.7579 20.4236C17.8678 20.5526 18.0169 20.625 18.1724 20.625H27.5517C27.7072 20.625 27.8563 20.5526 27.9662 20.4236C28.0762 20.2947 28.1379 20.1198 28.1379 19.9375V13.75H32.2414C32.3969 13.75 32.546 13.8224 32.6559 13.9514C32.7658 14.0803 32.8276 14.2552 32.8276 14.4375V19.9375Z"/>
</mask>
<path d="M32.2414 12.375H28.1379V11.6875C28.1379 11.5052 28.0762 11.3303 27.9662 11.2014C27.8563 11.0724 27.7072 11 27.5517 11H18.1724C18.0169 11 17.8678 11.0724 17.7579 11.2014C17.648 11.3303 17.5862 11.5052 17.5862 11.6875V12.375H7.03448V4.125C7.03448 3.39565 7.28153 2.69618 7.72127 2.18046C8.16101 1.66473 8.75742 1.375 9.37931 1.375C10.0012 1.375 10.5976 1.66473 11.0374 2.18046C11.4771 2.69618 11.7241 3.39565 11.7241 4.125C11.7241 4.30734 11.7859 4.4822 11.8958 4.61114C12.0058 4.74007 12.1549 4.8125 12.3103 4.8125C12.4658 4.8125 12.6149 4.74007 12.7249 4.61114C12.8348 4.4822 12.8966 4.30734 12.8966 4.125C12.8966 3.03098 12.526 1.98177 11.8664 1.20818C11.2068 0.434597 10.3121 0 9.37931 0C8.44648 0 7.55186 0.434597 6.89225 1.20818C6.23263 1.98177 5.86207 3.03098 5.86207 4.125V12.375H1.75862C1.29221 12.375 0.844893 12.5923 0.515088 12.9791C0.185283 13.3659 0 13.8905 0 14.4375V19.9375C0 22.3079 0.802892 24.5812 2.23205 26.2573C3.66121 27.9334 5.59956 28.875 7.62069 28.875H8.2069V32.3125C8.2069 32.4948 8.26866 32.6697 8.37859 32.7986C8.48853 32.9276 8.63763 33 8.7931 33C8.94858 33 9.09768 32.9276 9.20762 32.7986C9.31755 32.6697 9.37931 32.4948 9.37931 32.3125V28.875H24.6207V32.3125C24.6207 32.4948 24.6825 32.6697 24.7924 32.7986C24.9023 32.9276 25.0514 33 25.2069 33C25.3624 33 25.5115 32.9276 25.6214 32.7986C25.7313 32.6697 25.7931 32.4948 25.7931 32.3125V28.875H26.3793C28.4004 28.875 30.3388 27.9334 31.768 26.2573C33.1971 24.5812 34 22.3079 34 19.9375V14.4375C34 13.8905 33.8147 13.3659 33.4849 12.9791C33.1551 12.5923 32.7078 12.375 32.2414 12.375ZM18.7586 12.375H26.9655V19.25H18.7586V12.375ZM32.8276 19.9375C32.8276 21.9432 32.1482 23.8668 30.9389 25.285C29.7296 26.7032 28.0895 27.5 26.3793 27.5H7.62069C5.9105 27.5 4.27036 26.7032 3.06107 25.285C1.85178 23.8668 1.17241 21.9432 1.17241 19.9375V14.4375C1.17241 14.2552 1.23417 14.0803 1.34411 13.9514C1.45405 13.8224 1.60315 13.75 1.75862 13.75H17.5862V19.9375C17.5862 20.1198 17.648 20.2947 17.7579 20.4236C17.8678 20.5526 18.0169 20.625 18.1724 20.625H27.5517C27.7072 20.625 27.8563 20.5526 27.9662 20.4236C28.0762 20.2947 28.1379 20.1198 28.1379 19.9375V13.75H32.2414C32.3969 13.75 32.546 13.8224 32.6559 13.9514C32.7658 14.0803 32.8276 14.2552 32.8276 14.4375V19.9375Z" fill="#ECE7E4"/>
<path d="M28.1379 12.375H26.6379V13.875H28.1379V12.375ZM17.5862 12.375V13.875H19.0862V12.375H17.5862ZM7.03448 12.375H5.53448V13.875H7.03448V12.375ZM9.37931 1.375L9.37931 -0.125L9.37931 1.375ZM11.7241 4.125L10.2241 4.125L11.7241 4.125ZM12.8966 4.125L14.3966 4.125V4.125L12.8966 4.125ZM9.37931 0L9.37931 -1.5L9.37931 0ZM5.86207 4.125L4.36207 4.125V4.125H5.86207ZM5.86207 12.375V13.875H7.36207V12.375H5.86207ZM0 14.4375H-1.5H0ZM0 19.9375H-1.5H0ZM7.62069 28.875V30.375V28.875ZM8.2069 28.875H9.7069V27.375H8.2069V28.875ZM9.37931 28.875V27.375H7.87931V28.875H9.37931ZM24.6207 28.875H26.1207V27.375H24.6207V28.875ZM25.7931 28.875V27.375H24.2931V28.875H25.7931ZM26.3793 28.875L26.3793 30.375L26.3793 28.875ZM34 19.9375H35.5H34ZM18.7586 12.375V10.875H17.2586V12.375H18.7586ZM26.9655 12.375H28.4655V10.875H26.9655V12.375ZM26.9655 19.25V20.75H28.4655V19.25H26.9655ZM18.7586 19.25H17.2586V20.75H18.7586V19.25ZM1.17241 19.9375H-0.327586H1.17241ZM17.5862 13.75H19.0862V12.25H17.5862V13.75ZM28.1379 13.75V12.25H26.6379V13.75H28.1379ZM32.2414 10.875H28.1379V13.875H32.2414V10.875ZM29.6379 12.375V11.6875H26.6379V12.375H29.6379ZM29.6379 11.6875C29.6379 11.1778 29.4674 10.65 29.1076 10.2281L26.8248 12.1746C26.685 12.0106 26.6379 11.8326 26.6379 11.6875H29.6379ZM29.1076 10.2281C28.7417 9.79891 28.1892 9.5 27.5517 9.5V12.5C27.2252 12.5 26.9709 12.346 26.8248 12.1746L29.1076 10.2281ZM27.5517 9.5H18.1724V12.5H27.5517V9.5ZM18.1724 9.5C17.535 9.5 16.9825 9.79892 16.6165 10.2281L18.8993 12.1746C18.7532 12.3459 18.4989 12.5 18.1724 12.5V9.5ZM16.6165 10.2281C16.2568 10.65 16.0862 11.1778 16.0862 11.6875H19.0862C19.0862 11.8326 19.0392 12.0106 18.8993 12.1746L16.6165 10.2281ZM16.0862 11.6875V12.375H19.0862V11.6875H16.0862ZM17.5862 10.875H7.03448V13.875H17.5862V10.875ZM8.53448 12.375V4.125H5.53448V12.375H8.53448ZM8.53448 4.125C8.53448 3.72306 8.67273 3.37646 8.86267 3.15369L6.57986 1.20722C5.89032 2.0159 5.53448 3.06824 5.53448 4.125H8.53448ZM8.86267 3.15369C9.04638 2.93825 9.23941 2.875 9.37931 2.875L9.37931 -0.125C8.27543 -0.125 7.27564 0.391214 6.57986 1.20722L8.86267 3.15369ZM9.37931 2.875C9.51921 2.875 9.71224 2.93825 9.89595 3.15369L12.1788 1.20722C11.483 0.391214 10.4832 -0.125 9.37931 -0.125L9.37931 2.875ZM9.89595 3.15369C10.0859 3.37646 10.2241 3.72306 10.2241 4.125L13.2241 4.125C13.2241 3.06824 12.8683 2.0159 12.1788 1.20722L9.89595 3.15369ZM10.2241 4.125C10.2241 4.63474 10.3947 5.16248 10.7544 5.58437L13.0372 3.6379C13.1771 3.80193 13.2241 3.97993 13.2241 4.125L10.2241 4.125ZM10.7544 5.58437C11.1204 6.01359 11.6729 6.3125 12.3103 6.3125V3.3125C12.6369 3.3125 12.8911 3.46655 13.0372 3.6379L10.7544 5.58437ZM12.3103 6.3125C12.9478 6.3125 13.5003 6.01359 13.8663 5.58437L11.5834 3.6379C11.7296 3.46655 11.9838 3.3125 12.3103 3.3125V6.3125ZM13.8663 5.58437C14.226 5.16248 14.3966 4.63474 14.3966 4.125H11.3966C11.3966 3.97993 11.4436 3.80193 11.5834 3.6379L13.8663 5.58437ZM14.3966 4.125C14.3966 2.70357 13.9172 1.3015 13.0078 0.234948L10.725 2.18142C11.1348 2.66205 11.3966 3.35839 11.3966 4.125L14.3966 4.125ZM13.0078 0.234948C12.0921 -0.83892 10.7941 -1.5 9.37931 -1.5L9.37931 1.5C9.83015 1.5 10.3214 1.70811 10.725 2.18142L13.0078 0.234948ZM9.37931 -1.5C7.96449 -1.5 6.66649 -0.83892 5.75084 0.234948L8.03365 2.18142C8.43723 1.70811 8.92847 1.5 9.37931 1.5L9.37931 -1.5ZM5.75084 0.234948C4.84143 1.3015 4.36207 2.70357 4.36207 4.125L7.36207 4.125C7.36207 3.35839 7.62384 2.66205 8.03365 2.18142L5.75084 0.234948ZM4.36207 4.125V12.375H7.36207V4.125H4.36207ZM5.86207 10.875H1.75862V13.875H5.86207V10.875ZM1.75862 10.875C0.810216 10.875 -0.0404744 11.3188 -0.626319 12.0059L1.65649 13.9523C1.69408 13.9083 1.72536 13.8889 1.74106 13.8812C1.74908 13.8773 1.75419 13.8759 1.75629 13.8754C1.75742 13.8751 1.75807 13.8751 1.7583 13.875C1.75853 13.875 1.7586 13.875 1.75862 13.875V10.875ZM-0.626319 12.0059C-1.20592 12.6856 -1.5 13.5631 -1.5 14.4375L1.5 14.4375C1.5 14.2179 1.57649 14.0462 1.65649 13.9523L-0.626319 12.0059ZM-1.5 14.4375V19.9375H1.5V14.4375H-1.5ZM-1.5 19.9375C-1.5 22.6353 -0.588311 25.2614 1.09064 27.2305L3.37346 25.284C2.1941 23.9009 1.5 21.9805 1.5 19.9375H-1.5ZM1.09064 27.2305C2.77584 29.2069 5.11757 30.375 7.62069 30.375L7.62069 27.375C6.08155 27.375 4.54657 26.6599 3.37346 25.284L1.09064 27.2305ZM7.62069 30.375H8.2069V27.375H7.62069V30.375ZM6.7069 28.875V32.3125H9.7069V28.875H6.7069ZM6.7069 32.3125C6.7069 32.8222 6.87745 33.35 7.23719 33.7719L9.52 31.8254C9.65987 31.9894 9.7069 32.1674 9.7069 32.3125H6.7069ZM7.23719 33.7719C7.60317 34.2011 8.15565 34.5 8.7931 34.5V31.5C9.11961 31.5 9.37389 31.654 9.52 31.8254L7.23719 33.7719ZM8.7931 34.5C9.43056 34.5 9.98304 34.2011 10.349 33.7719L8.06621 31.8254C8.21232 31.654 8.4666 31.5 8.7931 31.5V34.5ZM10.349 33.7719C10.7088 33.35 10.8793 32.8222 10.8793 32.3125H7.87931C7.87931 32.1674 7.92634 31.9894 8.06621 31.8254L10.349 33.7719ZM10.8793 32.3125V28.875H7.87931V32.3125H10.8793ZM9.37931 30.375H24.6207V27.375H9.37931V30.375ZM23.1207 28.875V32.3125H26.1207V28.875H23.1207ZM23.1207 32.3125C23.1207 32.8222 23.2912 33.35 23.651 33.7719L25.9338 31.8254C26.0737 31.9894 26.1207 32.1674 26.1207 32.3125H23.1207ZM23.651 33.7719C24.017 34.2011 24.5694 34.5 25.2069 34.5V31.5C25.5334 31.5 25.7877 31.654 25.9338 31.8254L23.651 33.7719ZM25.2069 34.5C25.8444 34.5 26.3968 34.2011 26.7628 33.7719L24.48 31.8254C24.6261 31.654 24.8804 31.5 25.2069 31.5V34.5ZM26.7628 33.7719C27.1225 33.35 27.2931 32.8222 27.2931 32.3125H24.2931C24.2931 32.1674 24.3401 31.9894 24.48 31.8254L26.7628 33.7719ZM27.2931 32.3125V28.875H24.2931V32.3125H27.2931ZM25.7931 30.375H26.3793V27.375H25.7931V30.375ZM26.3793 30.375C28.8824 30.375 31.2242 29.2069 32.9094 27.2305L30.6265 25.284C29.4534 26.6599 27.9185 27.375 26.3793 27.375L26.3793 30.375ZM32.9094 27.2305C34.5883 25.2614 35.5 22.6353 35.5 19.9375L32.5 19.9375C32.5 21.9805 31.8059 23.9009 30.6265 25.284L32.9094 27.2305ZM35.5 19.9375V14.4375H32.5V19.9375H35.5ZM35.5 14.4375C35.5 13.5631 35.2059 12.6856 34.6263 12.0059L32.3435 13.9523C32.4235 14.0462 32.5 14.2179 32.5 14.4375H35.5ZM34.6263 12.0059C34.0405 11.3188 33.1898 10.875 32.2414 10.875V13.875C32.2414 13.875 32.2415 13.875 32.2417 13.875C32.2419 13.8751 32.2426 13.8751 32.2437 13.8754C32.2458 13.8759 32.2509 13.8773 32.2589 13.8812C32.2746 13.8889 32.3059 13.9083 32.3435 13.9523L34.6263 12.0059ZM18.7586 13.875H26.9655V10.875H18.7586V13.875ZM25.4655 12.375V19.25H28.4655V12.375H25.4655ZM26.9655 17.75H18.7586V20.75H26.9655V17.75ZM20.2586 19.25V12.375H17.2586V19.25H20.2586ZM31.3276 19.9375C31.3276 21.6158 30.757 23.1865 29.7975 24.3118L32.0803 26.2582C33.5394 24.547 34.3276 22.2706 34.3276 19.9375H31.3276ZM29.7975 24.3118C28.8443 25.4297 27.6075 26 26.3793 26V29C28.5715 29 30.615 27.9768 32.0803 26.2582L29.7975 24.3118ZM26.3793 26H7.62069V29H26.3793V26ZM7.62069 26C6.39249 26 5.15572 25.4297 4.20248 24.3118L1.91966 26.2582C3.38499 27.9768 5.42851 29 7.62069 29V26ZM4.20248 24.3118C3.24299 23.1865 2.67241 21.6158 2.67241 19.9375H-0.327586C-0.327586 22.2706 0.46058 24.547 1.91966 26.2582L4.20248 24.3118ZM2.67241 19.9375V14.4375H-0.327586V19.9375H2.67241ZM2.67241 14.4375C2.67241 14.5826 2.62538 14.7606 2.48552 14.9246L0.202703 12.9781C-0.157029 13.4 -0.327586 13.9278 -0.327586 14.4375H2.67241ZM2.48552 14.9246C2.33941 15.096 2.08514 15.25 1.75862 15.25V12.25C1.12116 12.25 0.568678 12.5489 0.202703 12.9781L2.48552 14.9246ZM1.75862 15.25H17.5862V12.25H1.75862V15.25ZM16.0862 13.75V19.9375H19.0862V13.75H16.0862ZM16.0862 19.9375C16.0862 20.4472 16.2568 20.975 16.6165 21.3969L18.8993 19.4504C19.0392 19.6144 19.0862 19.7924 19.0862 19.9375H16.0862ZM16.6165 21.3969C16.9825 21.8261 17.535 22.125 18.1724 22.125V19.125C18.4989 19.125 18.7532 19.279 18.8993 19.4504L16.6165 21.3969ZM18.1724 22.125H27.5517V19.125H18.1724V22.125ZM27.5517 22.125C28.1892 22.125 28.7417 21.8261 29.1076 21.3969L26.8248 19.4504C26.9709 19.279 27.2252 19.125 27.5517 19.125V22.125ZM29.1076 21.3969C29.4674 20.975 29.6379 20.4472 29.6379 19.9375H26.6379C26.6379 19.7924 26.685 19.6144 26.8248 19.4504L29.1076 21.3969ZM29.6379 19.9375V13.75H26.6379V19.9375H29.6379ZM28.1379 15.25H32.2414V12.25H28.1379V15.25ZM32.2414 15.25C31.9149 15.25 31.6606 15.0959 31.5145 14.9246L33.7973 12.9781C33.4313 12.5489 32.8788 12.25 32.2414 12.25V15.25ZM31.5145 14.9246C31.3746 14.7606 31.3276 14.5826 31.3276 14.4375H34.3276C34.3276 13.9277 34.157 13.4 33.7973 12.9781L31.5145 14.9246ZM31.3276 14.4375V19.9375H34.3276V14.4375H31.3276Z" fill="#ECE7E4" mask="url(#path-1-inside-1_648_769)"/>
</svg>
