<svg width="31" height="34" viewBox="0 0 31 34" fill="none" xmlns="http://www.w3.org/2000/svg">
<path d="M29.8 4.2V29.8C29.8 30.6487 29.4629 31.4626 28.8627 32.0627C28.2626 32.6629 27.4487 33 26.6 33H4.2C3.35131 33 2.53737 32.6629 1.93726 32.0627C1.33714 31.4626 1 30.6487 1 29.8V4.2C1 3.35131 1.33714 2.53737 1.93726 1.93726C2.53737 1.33714 3.35131 1 4.2 1H26.6C27.4487 1 28.2626 1.33714 28.8627 1.93726C29.4629 2.53737 29.8 3.35131 29.8 4.2Z" stroke="#ECE7E4" stroke-width="1.5" stroke-linecap="round" stroke-linejoin="round"/>
<path d="M1 10.5994H13.8V7.39941M29.8 10.5994H17V7.39941" stroke="#ECE7E4" stroke-width="1.5" stroke-linecap="round" stroke-linejoin="round"/>
</svg>
