<svg width="54" height="28" viewBox="0 0 54 28" fill="none" xmlns="http://www.w3.org/2000/svg">
<path d="M1 1.8551L0.572448 1.59587L0.321894 2.00912L0.726375 2.27359L1 1.8551ZM27 18.8551L26.7264 19.2736L27 19.4525L27.2736 19.2736L27 18.8551ZM1.51846 1L1.79208 0.581515L1.35911 0.298418L1.09091 0.740771L1.51846 1ZM27 17.661L26.7264 18.0795L27 18.2584L27.2736 18.0795L27 17.661ZM52.4815 1L52.9091 0.740771L52.6409 0.298418L52.2079 0.581515L52.4815 1ZM53 1.8551L53.2736 2.27359L53.6781 2.00912L53.4276 1.59587L53 1.8551ZM27 26.8551L26.7264 27.2736L27 27.4525L27.2736 27.2736L27 26.8551ZM53 9.8551L53.2736 10.2736L53.6781 10.0091L53.4276 9.59587L53 9.8551ZM1 9.8551L0.572448 9.59587L0.321894 10.0091L0.726375 10.2736L1 9.8551ZM1.51846 9L1.79208 8.58152L1.35911 8.29842L1.09091 8.74077L1.51846 9ZM27 25.661L26.7264 26.0795L27 26.2584L27.2736 26.0795L27 25.661ZM52.4815 9L52.9091 8.74077L52.6409 8.29842L52.2079 8.58152L52.4815 9ZM0.726375 2.27359L26.7264 19.2736L27.2736 18.4366L1.27362 1.43662L0.726375 2.27359ZM1.09091 0.740771L0.572448 1.59587L1.42755 2.11433L1.94601 1.25923L1.09091 0.740771ZM27.2736 17.2425L1.79208 0.581515L1.24483 1.41848L26.7264 18.0795L27.2736 17.2425ZM52.2079 0.581515L26.7264 17.2425L27.2736 18.0795L52.7552 1.41848L52.2079 0.581515ZM53.4276 1.59587L52.9091 0.740771L52.054 1.25923L52.5724 2.11433L53.4276 1.59587ZM27.2736 19.2736L53.2736 2.27359L52.7264 1.43662L26.7264 18.4366L27.2736 19.2736ZM27.2736 27.2736L53.2736 10.2736L52.7264 9.43662L26.7264 26.4366L27.2736 27.2736ZM27.2736 26.4366L1.27362 9.43662L0.726375 10.2736L26.7264 27.2736L27.2736 26.4366ZM1.42755 10.1143L1.94601 9.25923L1.09091 8.74077L0.572448 9.59587L1.42755 10.1143ZM1.24483 9.41848L26.7264 26.0795L27.2736 25.2425L1.79208 8.58152L1.24483 9.41848ZM52.2079 8.58152L26.7264 25.2425L27.2736 26.0795L52.7552 9.41848L52.2079 8.58152ZM53.4276 9.59587L52.9091 8.74077L52.054 9.25923L52.5724 10.1143L53.4276 9.59587Z" fill="#474747"/>
</svg>
