<svg width="59" height="60" viewBox="0 0 59 60" fill="none" xmlns="http://www.w3.org/2000/svg">
<path d="M46.7087 14.8003H12.292C8.2189 14.8003 4.91699 18.1135 4.91699 22.2005V28.9123L21.7256 34.5343H37.275L54.0837 28.9123V22.2005C54.0837 18.1135 50.7817 14.8003 46.7087 14.8003Z" fill="#F899CC"/>
<path d="M24.5837 14.8006V12.3339H34.417V14.8006H39.3337V12.3339C39.3306 9.61048 37.1311 7.4035 34.417 7.40039H24.5837C21.8695 7.4035 19.6701 9.61048 19.667 12.3339V14.8006H24.5837ZM21.7256 34.5347L4.91699 28.9125V44.4017C4.92144 48.4869 8.22072 51.7975 12.292 51.8019H46.7087C50.7799 51.7975 54.0792 48.4869 54.0837 44.4017V28.9125L37.275 34.5347H21.7256Z" fill="#E8CEE8"/>
<path d="M46.6374 15.0156H12.2207C8.14761 15.0156 4.8457 18.3288 4.8457 22.4159V29.1276L21.6543 34.7496H37.2038L54.0124 29.1276V22.4159C54.0124 18.3288 50.7105 15.0156 46.6374 15.0156Z" fill="#FF9383"/>
<path d="M24.5124 15.0881V12.6333H34.3457V15.0881H39.2624V12.6333C39.2593 9.92304 37.0598 7.72673 34.3457 7.72363H24.5124C21.7982 7.72673 19.5988 9.92304 19.5957 12.6333V15.0881H24.5124ZM21.6543 34.7268L4.8457 29.1318V44.5462C4.85015 48.6116 8.14943 51.9062 12.2207 51.9107H46.6374C50.7086 51.9062 54.0079 48.6116 54.0124 44.5462V29.1318L37.2038 34.7268H21.6543Z" fill="#E8CEE8"/>
</svg>
