<svg width="34" height="33" viewBox="0 0 35 33" fill="none" xmlns="http://www.w3.org/2000/svg">
<path d="M29.3148 31.68V32.18H29.8148H34.3518C34.3882 32.18 34.4249 32.1946 34.4534 32.2236C34.4822 32.253 34.5 32.2947 34.5 32.34C34.5 32.3853 34.4822 32.427 34.4534 32.4564C34.4249 32.4854 34.3882 32.5 34.3518 32.5H0.648148C0.611808 32.5 0.575086 32.4854 0.546582 32.4564C0.517769 32.427 0.5 32.3853 0.5 32.34C0.5 32.2947 0.517769 32.253 0.54658 32.2236C0.575091 32.1946 0.611812 32.18 0.648148 32.18H5.18518H5.68518V31.68V1.98C5.68518 1.58459 5.83953 1.20715 6.11144 0.930264C6.38305 0.653685 6.74949 0.5 7.12963 0.5H27.8704C28.2505 0.5 28.6169 0.653685 28.8886 0.930265C29.1605 1.20715 29.3148 1.58459 29.3148 1.98V31.68ZM28.5185 32.18H29.0185V31.68V1.98C29.0185 1.67525 28.8997 1.38119 28.6854 1.16297C28.4708 0.944457 28.1778 0.82 27.8704 0.82H7.12963C6.82217 0.82 6.52917 0.944457 6.31458 1.16297C6.10029 1.38118 5.98148 1.67524 5.98148 1.98V31.68V32.18H6.48148H28.5185ZM22.8333 16.5C22.8333 16.6642 22.7855 16.8239 22.6968 16.959C22.6082 17.094 22.4833 17.1979 22.3388 17.2588C22.1944 17.3197 22.0361 17.3355 21.8834 17.3046C21.7307 17.2737 21.5891 17.1971 21.4772 17.083C21.3651 16.9689 21.2878 16.8225 21.2564 16.6617C21.225 16.5008 21.2412 16.3342 21.3026 16.1833C21.3639 16.0324 21.4673 15.9049 21.5981 15.8158C21.7289 15.7269 21.8816 15.68 22.037 15.68C22.2453 15.68 22.4469 15.7642 22.5969 15.917C22.7473 16.0701 22.8333 16.2796 22.8333 16.5Z" fill="#ECE7E4" stroke="white"/>
</svg>
