<svg width="58" height="23" viewBox="0 0 58 23" fill="none" xmlns="http://www.w3.org/2000/svg">
<path d="M28.8902 21.1181L29.6098 21.8125L28.8902 21.1181ZM28.8903 21.1181L29.2707 22.0429L28.8903 21.1181ZM28.8902 21.1181L28.1706 20.4237L28.8902 21.1181ZM56.4924 9.76504L56.8728 10.6899L56.4924 9.76504ZM56.1387 8.90508L56.519 9.82991L56.1387 8.90508ZM32.6939 18.5481L32.3136 17.6233L32.6939 18.5481ZM1.64143 8.90508L2.02182 7.98026L1.64143 8.90508ZM1.28772 9.76504L1.66811 8.84022L1.28772 9.76504ZM28.8899 21.1181L28.1703 21.8125L28.8899 21.1181ZM28.8898 21.1181L28.5094 22.0429L28.8898 21.1181ZM28.8899 21.1181L28.1703 21.8125L28.8899 21.1181ZM28.8903 13.6034L28.5099 12.6786L28.8903 13.6034ZM28.8902 13.6035L28.1737 12.9059L28.8902 13.6035ZM56.4924 2.25039L56.8728 3.17522L56.4924 2.25039ZM56.1387 1.39043L55.7583 0.465609L56.1387 1.39043ZM28.8899 13.6035L29.6064 12.9059L28.8899 13.6035ZM28.8898 13.6034L29.2702 12.6786L28.8898 13.6034ZM28.8899 13.6035L28.1734 14.301L28.8899 13.6035ZM28.8902 13.6035L29.6067 14.301L28.8902 13.6035ZM28.1733 14.301L28.1734 14.301L29.6065 12.906L29.6064 12.9059L28.1733 14.301ZM0.907335 3.17522L28.5094 14.5282L29.2702 12.6786L1.66811 1.32557L0.907335 3.17522ZM25.4665 10.1087L2.02183 0.465609L1.26104 2.31526L24.7058 11.9583L25.4665 10.1087ZM55.7583 0.465609L32.3136 10.1087L33.0743 11.9583L56.519 2.31526L55.7583 0.465609ZM29.2707 14.5282L56.8728 3.17522L56.112 1.32557L28.5099 12.6786L29.2707 14.5282ZM29.6067 14.301L29.6068 14.301L28.1737 12.9059L28.1736 12.906L29.6067 14.301ZM28.1703 21.8125L28.1703 21.8125L29.6095 20.4238L29.6095 20.4237L28.1703 21.8125ZM29.2702 20.1932L1.66811 8.84022L0.907333 10.6899L28.5094 22.0429L29.2702 20.1932ZM1.26104 9.82991L24.7058 19.473L25.4665 17.6233L2.02182 7.98026L1.26104 9.82991ZM55.7583 7.98026L32.3136 17.6233L33.0743 19.473L56.519 9.82991L55.7583 7.98026ZM29.2707 22.0429L56.8728 10.6899L56.112 8.84022L28.5099 20.1932L29.2707 22.0429ZM28.1706 20.4237L28.1705 20.4238L29.6098 21.8125L29.6098 21.8125L28.1706 20.4237ZM28.1705 20.4238C28.4591 20.1247 28.8942 20.041 29.2653 20.1912L28.5149 22.0451C28.886 22.1953 29.3211 22.1116 29.6098 21.8125L28.1705 20.4238ZM28.5099 20.1932C28.3821 20.2458 28.2665 20.3243 28.1706 20.4237L29.6098 21.8125C29.5139 21.9119 29.3984 21.9903 29.2707 22.0429L28.5099 20.1932ZM55.9303 9.70638C55.6682 9.43445 55.7627 8.98389 56.112 8.84022L56.8728 10.6899C57.8291 10.2965 58.0879 9.06297 57.3703 8.31845L55.9303 9.70638ZM56.519 9.82991C56.316 9.91341 56.0826 9.86444 55.9303 9.70638L57.3703 8.31845C56.9532 7.88571 56.3141 7.75164 55.7583 7.98026L56.519 9.82991ZM24.7058 19.473C27.3863 20.5755 30.3938 20.5755 33.0743 19.473L32.3136 17.6233C30.1204 18.5254 27.6597 18.5254 25.4665 17.6233L24.7058 19.473ZM1.84983 9.70638C1.69749 9.86444 1.46406 9.91341 1.26104 9.82991L2.02182 7.98026C1.46599 7.75164 0.826903 7.88571 0.409819 8.31845L1.84983 9.70638ZM1.66811 8.84022C2.01741 8.98389 2.11193 9.43445 1.84983 9.70638L0.409819 8.31845C-0.30777 9.06297 -0.0489844 10.2965 0.907333 10.6899L1.66811 8.84022ZM29.6095 20.4237C29.5135 20.3243 29.398 20.2458 29.2702 20.1932L28.5094 22.0429C28.3817 21.9903 28.2662 21.9119 28.1703 21.8125L29.6095 20.4237ZM29.273 22.0419C29.0266 22.1441 28.7542 22.142 28.5149 22.0451L29.2653 20.1912C29.0259 20.0943 28.7535 20.0922 28.507 20.1944L29.273 22.0419ZM28.507 20.1944C28.8867 20.037 29.3241 20.128 29.6095 20.4238L28.1703 21.8125C28.4558 22.1084 28.8932 22.1994 29.273 22.0419L28.507 20.1944ZM28.5099 12.6786C28.3834 12.7306 28.269 12.808 28.1737 12.9059L29.6068 14.301C29.5114 14.3989 29.397 14.4763 29.2707 14.5282L28.5099 12.6786ZM55.9303 2.19173C55.6682 1.9198 55.7627 1.46924 56.112 1.32557L56.8728 3.17522C57.8291 2.78188 58.0879 1.54832 57.3703 0.803803L55.9303 2.19173ZM56.519 2.31526C56.316 2.39877 56.0826 2.34979 55.9303 2.19173L57.3703 0.803803C56.9532 0.371066 56.3141 0.236988 55.7583 0.465609L56.519 2.31526ZM24.7058 11.9583C27.3863 13.0609 30.3938 13.0609 33.0743 11.9583L32.3136 10.1087C30.1204 11.0107 27.6597 11.0107 25.4665 10.1087L24.7058 11.9583ZM1.84983 2.19173C1.69749 2.34979 1.46406 2.39876 1.26104 2.31526L2.02183 0.465609C1.46599 0.236989 0.826905 0.371065 0.409819 0.803803L1.84983 2.19173ZM1.66811 1.32557C2.01741 1.46924 2.11194 1.9198 1.84983 2.19173L0.409819 0.803803C-0.307774 1.54832 -0.0489777 2.78188 0.907335 3.17522L1.66811 1.32557ZM29.6064 12.9059C29.5137 12.8107 29.4001 12.732 29.2702 12.6786L28.5094 14.5282C28.3796 14.4748 28.266 14.3962 28.1733 14.301L29.6064 12.9059ZM28.507 12.6798C28.8852 12.5229 29.3209 12.6126 29.6065 12.906L28.1734 14.301C28.459 14.5945 28.8947 14.6841 29.273 14.5273L28.507 12.6798ZM28.5149 14.5305C28.8845 14.6801 29.3179 14.5977 29.6067 14.301L28.1736 12.906C28.4624 12.6093 28.8957 12.527 29.2653 12.6766L28.5149 14.5305ZM29.2653 12.6766C29.0259 12.5797 28.7535 12.5776 28.507 12.6798L29.273 14.5273C29.0266 14.6294 28.7542 14.6273 28.5149 14.5305L29.2653 12.6766Z" fill="#FF9383"/>
</svg>
