<svg width="155" height="31" viewBox="0 0 155 31" fill="none" xmlns="http://www.w3.org/2000/svg">
<path d="M1 28.252V26.2004C1 25.4213 1.51099 24.7344 2.25666 24.5118C3.5186 24.1345 5.4781 23.5493 6.92834 23.1158M1 28.252V2.7653C1 1.3558 2.57054 0.516799 3.73978 1.30116L14.3351 8.41091C14.8226 8.73818 15.1154 9.28752 15.1154 9.87508V16.6123M1 28.252C3.33673 28.252 5.16774 28.252 6.86675 28.252M6.92834 23.1158C6.92834 20.6217 6.92834 17.3286 6.92834 14.9619C6.92834 13.6083 8.38857 12.7616 9.56192 13.4332C12.8221 15.2992 15.3085 16.7228 18.8866 18.771C19.4351 19.0847 19.7736 19.6693 19.7736 20.3015V26.4894C19.7736 27.463 18.9857 28.252 18.0136 28.252H15.1154C11.7761 28.252 9.47804 28.252 6.86675 28.252M6.92834 23.1158L6.86675 28.252M6.92834 23.1158C6.92834 23.1158 17.1652 19.8027 19.4803 19.1105" stroke="#A11CAF"/>
<path d="M23.7285 27.5018C23.7285 26.805 23.8837 25.9942 24.1942 25.0697C24.5116 24.1382 24.9222 23.2136 25.4258 22.296C25.9364 21.3714 26.5194 20.4572 27.1749 19.5533C27.8304 18.6495 28.4893 17.8526 29.1517 17.1626C29.8141 16.4726 30.4696 15.9137 31.1181 15.4859C31.7667 15.0581 32.3256 14.8443 32.7948 14.8443C33.0777 14.8443 33.3399 14.9202 33.5813 15.0719C33.8297 15.2238 34.0126 15.4652 34.1299 15.7964C33.1915 16.2104 32.3049 16.8072 31.47 17.5869C30.642 18.3666 29.7347 19.3808 28.7481 20.6297C27.7959 21.8303 26.8921 23.2378 26.0365 24.8523C25.1878 26.46 24.7635 27.5984 24.7635 28.2677C24.7635 28.6058 24.9463 28.7749 25.312 28.7749C25.864 28.7749 26.4677 28.5368 27.1232 28.0607C27.7856 27.5778 28.51 26.905 29.2966 26.0426C30.4902 24.773 31.4597 23.3931 32.2049 21.9027C32.95 20.4124 33.3226 19.2912 33.3226 18.5391C33.3226 18.1734 33.2398 17.8526 33.0742 17.5766C33.1432 17.4869 33.2536 17.4144 33.4054 17.3592C33.5641 17.2971 33.7021 17.2661 33.8194 17.2661C34.1712 17.2661 34.3472 17.5421 34.3472 18.0941C34.3472 19.7293 33.257 21.9165 31.0767 24.6557C30.4489 25.4699 29.8141 26.2047 29.1724 26.8602C28.5307 27.5156 27.8511 28.078 27.1335 28.5472C26.4159 29.0095 25.7812 29.2406 25.2292 29.2406C24.7117 29.2406 24.3322 29.0784 24.0907 28.7541C23.8493 28.4298 23.7285 28.0124 23.7285 27.5018ZM32.2773 28.7127C32.2773 28.5886 32.3049 28.454 32.3601 28.3091C32.4222 28.1642 32.5154 28.0021 32.6395 27.8227C32.7706 27.6364 32.8879 27.4777 32.9914 27.3466C33.0949 27.2155 33.2398 27.0396 33.4261 26.8188C33.6193 26.5911 33.7607 26.422 33.8505 26.3116C34.1126 26.5324 34.2955 26.6946 34.399 26.7981C34.5094 26.8946 34.6059 27.0223 34.6887 27.181C34.7784 27.3397 34.8233 27.5087 34.8233 27.6881C34.8233 27.9641 34.637 28.2919 34.2644 28.6714C33.8918 29.0439 33.433 29.3682 32.8879 29.6442C32.6602 29.5062 32.5015 29.3682 32.4119 29.2302C32.3222 29.0923 32.2773 28.9197 32.2773 28.7127ZM38.9735 27.7088C39.2081 27.7848 39.4185 27.8227 39.6048 27.8227C40.2189 27.8227 40.764 27.6571 41.2401 27.3259C41.723 26.9947 42.2543 26.4876 42.8339 25.8045C43.3652 25.1628 44.1966 24.0243 45.3282 22.3891C45.1281 22.4029 44.8176 22.4098 44.3967 22.4098C43.7826 22.4098 43.4859 22.2063 43.5066 21.7992L45.7732 21.7371C46.4425 20.7711 47.1324 19.643 47.8431 18.3528C48.5538 17.0556 48.9091 16.169 48.9091 15.6929C48.9091 15.272 48.6055 15.0616 47.9984 15.0616C47.2946 15.0616 46.5908 15.241 45.887 15.5998C45.1832 15.9517 44.6037 16.4278 44.1483 17.028C43.6929 17.6214 43.4652 18.2355 43.4652 18.8703C43.4652 19.2015 43.5549 19.4602 43.7343 19.6465C43.9206 19.8259 44.1621 19.9087 44.4588 19.8949C44.2449 20.2605 43.9206 20.4434 43.4859 20.4434C43.1271 20.4434 42.8339 20.333 42.6062 20.1122C42.3854 19.8914 42.275 19.5706 42.275 19.1497C42.275 18.6736 42.3958 18.201 42.6372 17.7318C42.8787 17.2626 43.1996 16.8417 43.5998 16.4692C44 16.0966 44.4485 15.7654 44.9452 15.4756C45.4489 15.1858 45.9733 14.965 46.5183 14.8132C47.0634 14.6545 47.5844 14.5752 48.0812 14.5752C48.3502 14.5752 48.6021 14.5959 48.8366 14.6373C49.0782 14.6718 49.3266 14.7339 49.5818 14.8236C49.8372 14.9133 50.0407 15.0581 50.1925 15.2582C50.3443 15.4515 50.4202 15.6895 50.4202 15.9723C50.4202 16.4278 50.2581 17.0073 49.9338 17.7111C49.5405 18.5805 48.8332 19.8949 47.8121 21.6543H47.8535C48.4882 21.6336 49.3162 21.5956 50.3374 21.5405C50.7583 20.8574 51.0894 20.3261 51.3309 19.9466C51.5793 19.5671 51.907 19.0876 52.3141 18.5081C52.7212 17.9284 53.1283 17.3868 53.5354 16.8832C54.1081 16.1862 54.629 15.6826 55.0982 15.3721C55.5743 15.0616 56.0986 14.9064 56.6714 14.9064C56.8852 14.9064 57.1336 14.9512 57.4165 15.0409C56.1194 16.0414 54.598 17.8767 52.8523 20.5469C51.907 21.9958 51.1481 23.3447 50.5754 24.5936C50.0027 25.8356 49.7164 26.8533 49.7164 27.6467C49.7164 28.2677 50.0062 28.5782 50.5857 28.5782C50.9169 28.5782 51.2205 28.4816 51.4965 28.2884C51.3861 28.4747 51.1826 28.6472 50.8859 28.8059C50.5961 28.9646 50.2649 29.0439 49.8923 29.0439C49.3197 29.0439 48.8746 28.8922 48.5572 28.5886C48.2398 28.285 48.0812 27.8365 48.0812 27.2431C48.0812 26.6359 48.2192 25.9632 48.4951 25.2249C48.7711 24.4798 49.2921 23.4172 50.0579 22.0373C49.8923 22.058 49.2058 22.1062 47.9984 22.1822L47.4705 22.2235C47.16 22.7479 46.8978 23.1895 46.684 23.5483C46.4701 23.9002 46.194 24.3314 45.856 24.842C45.5179 25.3525 45.2109 25.7803 44.9349 26.1254C44.6658 26.4703 44.3518 26.836 43.9931 27.2224C43.6343 27.6019 43.2927 27.9089 42.9684 28.1435C42.651 28.3712 42.3026 28.561 41.9231 28.7127C41.5505 28.8645 41.1814 28.9404 40.8157 28.9404C40.3948 28.9404 39.9981 28.8266 39.6255 28.5989C39.253 28.3643 39.0356 28.0676 38.9735 27.7088ZM52.3555 27.5846C52.3555 26.9637 52.5005 26.2875 52.7902 25.5561C53.08 24.8179 53.4802 24.1072 53.9908 23.4241C54.5083 22.741 55.0844 22.1166 55.7192 21.5508C56.3609 20.985 57.0612 20.5331 57.8201 20.195C58.586 19.85 59.3278 19.6775 60.0453 19.6775C60.3903 19.6775 60.6628 19.7569 60.8629 19.9156C61.07 20.0674 61.1735 20.2985 61.1735 20.609C61.1735 20.6297 61.1699 20.6642 61.1632 20.7125C61.156 20.7608 61.1529 20.7987 61.1529 20.8264C60.9457 20.6814 60.6766 20.609 60.3455 20.609C59.8004 20.609 59.1518 20.8781 58.3997 21.4163C57.6476 21.9545 56.9508 22.6065 56.3091 23.3724C55.6674 24.1313 55.1189 24.9524 54.6635 25.8356C54.2081 26.7118 53.9804 27.4639 53.9804 28.0918C53.9804 28.5057 54.1943 28.7127 54.6221 28.7127C55.0637 28.7127 55.6157 28.4368 56.278 27.8848C56.9404 27.3259 57.558 26.6669 58.1306 25.908C58.7102 25.149 59.207 24.3555 59.621 23.5276C60.035 22.6996 60.242 22.0303 60.242 21.5198C60.4765 21.6164 60.6491 21.7509 60.7594 21.9234C60.8767 22.089 60.9354 22.3236 60.9354 22.6272C60.9354 22.9791 60.825 23.3931 60.6042 23.8691C60.3834 24.3452 60.0902 24.8282 59.7245 25.3181C59.3657 25.8011 58.9413 26.284 58.4515 26.7671C57.9685 27.25 57.4717 27.6778 56.9611 28.0504C56.4506 28.4229 55.9227 28.7231 55.3776 28.9508C54.8326 29.1854 54.3323 29.3027 53.8769 29.3027C53.3871 29.3027 53.011 29.1543 52.7488 28.8576C52.4867 28.5541 52.3555 28.1297 52.3555 27.5846ZM60.5524 27.181C60.5524 26.4634 60.7422 25.7114 61.1214 24.9248C61.5078 24.1382 62.0189 23.4068 62.6536 22.7307C63.2949 22.0545 63.9956 21.4404 64.7544 20.8884C65.5205 20.3365 66.3102 19.9018 67.1247 19.5844C67.9387 19.267 68.6872 19.1083 69.3703 19.1083C69.9705 19.1083 70.3914 19.2049 70.633 19.3981C70.8746 19.5913 70.9951 19.8673 70.9951 20.2261C70.9951 20.7573 70.7432 21.2576 70.24 21.7268C69.7361 22.1959 69.0699 22.5824 68.2421 22.8859C67.4142 23.1895 66.5034 23.3931 65.5096 23.4966V23.5794C65.6822 23.5655 65.8512 23.5586 66.0171 23.5586C66.8038 23.5586 67.3591 23.669 67.6831 23.8898C68.0144 24.1106 68.1803 24.4246 68.1803 24.8317C68.1803 25.2801 68.0077 25.7596 67.6625 26.2702C67.3246 26.7808 66.8898 27.2466 66.3587 27.6675C65.8342 28.0883 65.2268 28.4402 64.537 28.7231C63.8539 28.9991 63.195 29.1371 62.5603 29.1371C61.9602 29.1371 61.4733 28.9715 61.1008 28.6403C60.7353 28.3091 60.5524 27.8227 60.5524 27.181ZM62.0946 27.8641C62.0946 28.0918 62.16 28.285 62.2915 28.4437C62.4223 28.5955 62.6397 28.6714 62.9431 28.6714C63.4124 28.6714 63.9193 28.4298 64.4643 27.9469C65.0094 27.4639 65.4581 26.9085 65.81 26.2806C66.1618 25.6527 66.3381 25.1215 66.3381 24.6868C66.3381 24.466 66.269 24.2728 66.131 24.1072C65.9929 23.9416 65.7585 23.8588 65.4272 23.8588C64.8338 23.8588 64.3026 23.914 63.8333 24.0243C63.3228 24.6798 62.9055 25.356 62.5809 26.0529C62.2569 26.7498 62.0946 27.3535 62.0946 27.8641ZM64.1749 23.4759C64.8162 23.3516 65.5308 23.0929 66.3169 22.6996C67.1108 22.3063 67.797 21.851 68.3765 21.3335C68.9633 20.8091 69.2565 20.3434 69.2565 19.9363C69.2565 19.7362 69.1462 19.6361 68.9252 19.6361C68.4492 19.6361 67.7558 20.0053 66.845 20.7436C65.9341 21.4818 65.0439 22.3926 64.1749 23.4759ZM68.9979 27.5846C68.9979 26.9637 69.1426 26.2875 69.4327 25.5561C69.7222 24.8179 70.1225 24.1072 70.633 23.4241C71.1502 22.741 71.7267 22.1166 72.3614 21.5508C73.0033 20.985 73.7034 20.5331 74.4622 20.195C75.2283 19.85 75.9701 19.6775 76.6878 19.6775C77.0324 19.6775 77.3049 19.7569 77.5053 19.9156C77.7119 20.0674 77.8154 20.2985 77.8154 20.609C77.8154 20.6297 77.8124 20.6642 77.8051 20.7125C77.7985 20.7608 77.7948 20.7987 77.7948 20.8264C77.5877 20.6814 77.3188 20.609 76.9876 20.609C76.4425 20.609 75.7939 20.8781 75.0418 21.4163C74.2896 21.9545 73.5932 22.6065 72.9512 23.3724C72.3099 24.1313 71.7612 24.9524 71.3058 25.8356C70.8504 26.7118 70.6227 27.4639 70.6227 28.0918C70.6227 28.5057 70.8365 28.7127 71.264 28.7127C71.7061 28.7127 72.2578 28.4368 72.9203 27.8848C73.5829 27.3259 74.2 26.6669 74.7729 25.908C75.3524 25.149 75.849 24.3555 76.2633 23.5276C76.6769 22.6996 76.884 22.0303 76.884 21.5198C77.119 21.6164 77.291 21.7509 77.4018 21.9234C77.5187 22.089 77.5774 22.3236 77.5774 22.6272C77.5774 22.9791 77.4672 23.3931 77.2461 23.8691C77.0257 24.3452 76.7326 24.8282 76.3668 25.3181C76.0077 25.8011 75.5838 26.284 75.0938 26.7671C74.6106 27.25 74.114 27.6778 73.6035 28.0504C73.0929 28.4229 72.5649 28.7231 72.0198 28.9508C71.4748 29.1854 70.9745 29.3027 70.5191 29.3027C70.0292 29.3027 69.6531 29.1543 69.3909 28.8576C69.1287 28.5541 68.9979 28.1297 68.9979 27.5846ZM77.4018 27.4605C77.4018 26.3841 77.8021 25.3112 78.6021 24.2417C79.4094 23.1654 80.4062 22.2615 81.5931 21.5301C82.7868 20.7918 83.998 20.2882 85.2261 20.0191C85.3775 19.3015 85.4538 18.5598 85.4538 17.7939C85.4538 16.4761 85.1704 15.4859 84.6048 14.8236C84.0392 14.1612 83.2561 13.83 82.2557 13.83C81.0069 13.83 79.9617 14.1957 79.1199 14.9271C79.5129 14.2992 80.0858 13.7955 80.838 13.416C81.5895 13.0296 82.3798 12.8364 83.2077 12.8364C85.9401 12.8364 87.3064 14.3268 87.3064 17.3075C87.3064 18.2458 87.1822 19.2084 86.9333 20.195C86.6923 21.1748 86.3647 22.0924 85.9504 22.948C85.5362 23.8036 85.0499 24.6178 84.4909 25.3905C83.9392 26.1564 83.3597 26.8153 82.7523 27.3673C82.1521 27.9124 81.5277 28.3436 80.8791 28.661C80.2372 28.9784 79.6304 29.1371 79.0575 29.1371C78.5058 29.1371 78.0916 28.9922 77.8154 28.7024C77.5399 28.4057 77.4018 27.9917 77.4018 27.4605ZM79.1816 27.6467C79.1816 28.2263 79.4094 28.5161 79.8648 28.5161C80.2445 28.5161 80.7065 28.2367 81.2516 27.6778C81.8039 27.1189 82.3314 26.4358 82.8352 25.6286C83.3458 24.8144 83.8115 23.9347 84.2323 22.9894C84.6532 22.0442 84.9433 21.2024 85.102 20.4641C84.1912 20.8022 83.2598 21.3956 82.3071 22.2442C81.3551 23.086 80.6169 23.9623 80.0925 24.873C79.8926 25.218 79.6891 25.6561 79.482 26.1874C79.2816 26.7187 79.1816 27.2051 79.1816 27.6467ZM84.8743 26.9533C85.3569 27.6295 86.1127 27.9676 87.1404 27.9676C87.6649 27.9676 88.179 27.8675 88.6829 27.6675C89.1862 27.4674 89.6107 27.2224 89.9559 26.9326C90.3005 26.6359 90.5766 26.322 90.7837 25.9908C90.9975 25.6527 91.1047 25.3491 91.1047 25.08C91.1047 24.8179 90.9079 24.6868 90.5149 24.6868C90.2314 24.6868 89.8693 24.7661 89.4278 24.9248C88.993 25.0835 88.5933 25.2939 88.2275 25.5561C88.2202 25.5216 88.2069 25.4595 88.1857 25.3698C88.1724 25.2732 88.1651 25.2077 88.1651 25.1732C88.1651 24.9662 88.2687 24.7937 88.4758 24.6557C88.5515 24.6074 88.7035 24.5212 88.9312 24.397C89.1589 24.2659 89.3176 24.1762 89.4072 24.1278C90.2351 23.6104 90.8976 23.0619 91.3942 22.4823C91.898 21.9027 92.15 21.3438 92.15 20.8056C92.15 20.6676 92.1015 20.5607 92.0046 20.4848C91.9083 20.402 91.7842 20.3606 91.6322 20.3606C91.2319 20.3606 90.7662 20.5572 90.2351 20.9506C89.7039 21.3369 89.2279 21.7992 88.8071 22.3374C88.3928 22.8687 88.1064 23.362 87.9477 23.8174C87.72 23.5276 87.6061 23.2136 87.6061 22.8756C87.6061 22.4133 87.8199 21.9579 88.2481 21.5094C88.6756 21.0541 89.2728 20.6745 90.0382 20.3709C90.8043 20.0674 91.6255 19.9156 92.5018 19.9156C93.019 19.9156 93.4157 19.9915 93.6918 20.1433C93.9746 20.2951 94.1164 20.5159 94.1164 20.8056C94.1164 21.3852 93.7227 21.9924 92.9366 22.6272C92.1566 23.262 91.0599 23.8691 89.6452 24.4487L89.6658 24.5522C90.2732 24.3245 90.8734 24.2107 91.4669 24.2107C91.9017 24.2107 92.222 24.3004 92.4292 24.4798C92.6363 24.6522 92.7398 24.8903 92.7398 25.1939C92.7398 25.7252 92.5709 26.253 92.2323 26.7773C91.9017 27.3017 91.4838 27.7502 90.9806 28.1228C90.4767 28.4954 89.9244 28.799 89.3242 29.0336C88.7308 29.2682 88.1724 29.3855 87.6479 29.3855C87.089 29.3855 86.6027 29.3062 86.1884 29.1474C85.7815 28.9957 85.4538 28.7334 85.2049 28.3609C84.9566 27.9883 84.8464 27.5191 84.8743 26.9533ZM93.495 28.8162C93.3436 28.6645 93.2673 28.4506 93.2673 28.1746C93.2673 27.8986 93.3466 27.5915 93.5059 27.2535C93.6646 26.9154 94.0025 26.3634 94.5197 25.5975C95.548 24.1141 96.2759 22.9204 96.7035 22.0165C97.1383 21.1058 97.3557 20.4813 97.3557 20.1433C97.3557 20.0674 97.3351 19.9777 97.2933 19.8742C97.5695 19.8466 97.7766 19.8328 97.9147 19.8328C98.4113 19.8328 98.7771 19.8949 99.0114 20.0191C99.2531 20.1433 99.3736 20.3537 99.3736 20.6504C99.3736 20.8712 99.3221 21.123 99.2185 21.4059C99.115 21.6819 98.9599 21.9855 98.7528 22.3167C98.5457 22.6479 98.3731 22.9169 98.2356 23.1239C98.0976 23.324 97.911 23.5828 97.6767 23.9002C97.3454 24.3555 96.9245 24.9179 96.414 25.5872C95.9101 26.2496 95.4959 26.7981 95.1719 27.2328C94.8473 27.6606 94.6438 27.9538 94.5615 28.1125C94.5064 28.1952 94.4785 28.2746 94.4785 28.3505C94.4785 28.4609 94.5403 28.5161 94.665 28.5161C95.0926 28.5161 95.8375 28.078 96.9003 27.2017C97.9698 26.3185 98.877 25.4216 99.6225 24.5108C99.7048 24.4073 100.029 23.9416 100.595 23.1136C101.168 22.2856 101.63 21.644 101.982 21.1886C102.686 20.2709 103.355 19.8121 103.99 19.8121C104.583 19.8121 105.093 20.0087 105.522 20.402C105.059 20.7746 104.614 21.1713 104.186 21.5922C103.765 22.0062 103.193 22.6341 102.468 23.4759C101.806 24.2555 101.213 25.0731 100.688 25.9287C100.164 26.7843 99.9017 27.5122 99.9017 28.1125C99.9017 28.5541 100.105 28.7749 100.512 28.7749C100.947 28.7749 101.468 28.6127 102.075 28.2884C102.689 27.9641 103.265 27.5812 103.804 27.1396C104.342 26.6911 104.814 26.2668 105.221 25.8666C105.628 25.4664 105.904 25.1628 106.049 24.9558C106.194 25.0524 106.201 25.2353 106.07 25.5044C106.029 25.5872 105.877 25.7596 105.615 26.0219C105.359 26.284 105.011 26.598 104.57 26.9637C104.135 27.3294 103.672 27.6813 103.183 28.0193C102.693 28.3574 102.161 28.6437 101.589 28.8784C101.023 29.1198 100.509 29.2406 100.046 29.2406C99.4947 29.2406 99.0877 29.1095 98.8255 28.8473C98.5699 28.5782 98.4422 28.2298 98.4422 27.802C98.4422 27.1258 98.6596 26.3979 99.0944 25.6182C98.7014 26.0667 98.2356 26.5359 97.6973 27.0258C97.1589 27.5087 96.5448 27.9676 95.855 28.4022C95.1653 28.83 94.5924 29.0439 94.1369 29.0439C93.8608 29.0439 93.647 28.968 93.495 28.8162ZM103.255 28.5782C103.255 28.4471 103.289 28.2953 103.358 28.1228C103.421 27.9434 103.531 27.7192 103.69 27.4501C103.855 27.181 104 26.9499 104.125 26.7567C104.249 26.5566 104.445 26.2565 104.714 25.8562C104.991 25.4491 105.197 25.1421 105.335 24.9351C105.632 24.4936 105.846 24.1693 105.977 23.9623C106.115 23.7553 106.315 23.431 106.577 22.9894C106.839 22.5478 107.033 22.189 107.157 21.913C107.288 21.6302 107.409 21.3197 107.519 20.9816C107.629 20.6366 107.685 20.3365 107.685 20.0812C107.685 19.9846 107.678 19.9156 107.664 19.8742C108.368 19.9018 108.865 20.0156 109.154 20.2157C109.444 20.4158 109.589 20.709 109.589 21.0954C109.589 21.4542 109.434 21.9165 109.123 22.4823C108.812 23.0481 108.502 23.5241 108.192 23.9106L107.726 24.4901C108.961 24.3176 109.817 24.1624 110.293 24.0243C110.679 23.5828 111.179 22.8825 111.793 21.9234C112.407 20.9575 112.756 20.2364 112.838 19.7603C113.273 19.8086 113.653 19.9294 113.977 20.1226C114.308 20.3158 114.474 20.5848 114.474 20.9298C114.474 21.1782 114.322 21.5439 114.019 22.0269C113.722 22.503 113.381 22.9791 112.994 23.4551C112.608 23.9312 112.169 24.4832 111.679 25.1111C111.197 25.7321 110.827 26.2392 110.572 26.6325C110.172 27.2742 109.972 27.7813 109.972 28.1539C109.972 28.4851 110.127 28.6506 110.437 28.6506C110.838 28.6506 111.352 28.4333 111.98 27.9986C112.614 27.564 113.218 27.0568 113.791 26.4772C114.363 25.8907 114.871 25.3422 115.312 24.8317C115.754 24.3142 116.043 23.9381 116.181 23.7036C116.299 23.7725 116.358 23.8726 116.358 24.0037C116.358 24.1347 116.292 24.2969 116.161 24.4901C116.071 24.6143 115.899 24.8213 115.644 25.1111C115.395 25.4009 115.026 25.7942 114.536 26.2909C114.053 26.7808 113.56 27.2362 113.056 27.6571C112.553 28.078 112 28.4437 111.4 28.7541C110.807 29.0646 110.276 29.2199 109.806 29.2199C109.365 29.2199 109.02 29.1026 108.771 28.868C108.53 28.6334 108.409 28.3125 108.409 27.9055C108.409 27.4501 108.537 26.9568 108.792 26.4255C109.054 25.8873 109.479 25.2284 110.065 24.4487C108.375 24.773 107.481 24.942 107.384 24.9558C106.784 25.6389 106.136 26.4289 105.439 27.3259C104.749 28.2159 104.249 28.9232 103.938 29.4476C103.483 29.2889 103.255 28.9991 103.255 28.5782ZM113.998 27.3777C113.998 26.7636 114.129 26.1357 114.391 25.494C114.66 24.8523 115.012 24.259 115.447 23.7139C115.882 23.1688 116.378 22.6548 116.937 22.1718C117.503 21.6819 118.082 21.2679 118.676 20.9298C119.269 20.5848 119.859 20.3123 120.445 20.1122C121.032 19.9121 121.56 19.8121 122.029 19.8121C123.037 19.8121 123.54 20.1157 123.54 20.7229C123.54 21.0472 123.306 21.5681 122.836 22.2856C122.623 22.6168 122.436 22.9618 122.277 23.3206C122.119 23.6794 122.012 23.9519 121.956 24.1382L121.884 24.428C121.022 24.1382 120.591 23.6932 120.591 23.0929C120.591 22.8445 120.687 22.5754 120.88 22.2856C121.081 21.9958 121.298 21.744 121.532 21.5301C121.767 21.3162 121.981 21.0989 122.174 20.8781C122.374 20.6504 122.474 20.471 122.474 20.3399C122.474 20.2088 122.381 20.1433 122.195 20.1433C121.967 20.1433 121.653 20.2433 121.253 20.4434C120.853 20.6366 120.418 20.8988 119.949 21.23C119.48 21.5612 119.004 21.9648 118.521 22.4409C118.038 22.9169 117.596 23.4172 117.196 23.9416C116.803 24.466 116.482 25.0421 116.233 25.6699C115.985 26.2978 115.861 26.9016 115.861 27.4812C115.861 28.2401 116.223 28.6196 116.947 28.6196C117.555 28.6196 118.238 28.4471 118.997 28.1021C119.762 27.7571 120.484 27.3294 121.16 26.8188C121.836 26.3013 122.45 25.7803 123.002 25.256C123.554 24.7316 123.992 24.2521 124.316 23.8174C124.406 23.8657 124.451 23.9554 124.451 24.0865C124.451 24.1762 124.413 24.2969 124.337 24.4487C124.282 24.5453 124.106 24.7557 123.81 25.08C123.513 25.3974 123.085 25.7942 122.526 26.2702C121.974 26.7463 121.377 27.2017 120.736 27.6364C120.094 28.0711 119.359 28.4437 118.531 28.7541C117.703 29.0646 116.913 29.2199 116.161 29.2199C115.471 29.2199 114.936 29.0612 114.557 28.7438C114.184 28.4264 113.998 27.971 113.998 27.3777ZM121.325 28.2677C121.325 27.9779 121.446 27.6433 121.688 27.2638C121.895 26.9464 122.267 26.4255 122.805 25.701C123.351 24.9765 123.81 24.3521 124.182 23.8277C124.554 23.2965 124.9 22.6755 125.217 21.9648C125.534 21.2472 125.693 20.6056 125.693 20.0398C125.693 19.9708 125.686 19.9225 125.672 19.8949C125.783 19.8811 125.896 19.8742 126.014 19.8742C126.58 19.8742 126.976 19.9673 127.204 20.1536C127.438 20.3399 127.556 20.5641 127.556 20.8264C127.556 21.3646 127.356 21.9648 126.956 22.6272C126.555 23.2896 126.114 23.8829 125.631 24.4073C125.583 24.4694 125.583 24.5005 125.631 24.5005C125.652 24.5005 125.679 24.4901 125.714 24.4694C125.824 24.3797 126.096 24.1589 126.531 23.8071C126.973 23.4482 127.307 23.1792 127.535 22.9997C127.763 22.8134 128.063 22.5789 128.436 22.296C128.808 22.0062 129.146 21.7544 129.45 21.5405C129.939 21.1886 130.54 20.8264 131.251 20.4537C131.968 20.0812 132.524 19.8949 132.917 19.8949C133.373 19.8949 133.6 20.0639 133.6 20.402C133.6 20.5745 133.521 20.7849 133.362 21.0333C133.203 21.2817 132.948 21.5784 132.596 21.9234C132.244 22.2684 131.93 22.5685 131.654 22.8238C131.385 23.0722 130.988 23.4241 130.464 23.8795C129.947 24.3279 129.585 24.6453 129.377 24.8317C129.233 24.7419 129.109 24.6178 129.005 24.459C128.901 24.3004 128.849 24.1347 128.849 23.9623C128.849 23.5414 129.098 23.1239 129.595 22.71C129.829 22.5168 130.195 22.2615 130.692 21.9441C131.195 21.6198 131.602 21.3438 131.913 21.1161C132.23 20.8815 132.389 20.7125 132.389 20.609C132.389 20.5538 132.341 20.5262 132.244 20.5262C131.982 20.5262 131.458 20.7642 130.671 21.2403C129.892 21.7095 129.181 22.1856 128.539 22.6686C128.235 22.9031 127.767 23.2723 127.131 23.776C126.497 24.2797 126.124 24.5729 126.014 24.6557C126.448 24.773 126.828 25.1076 127.152 25.6596C127.415 26.0943 127.739 26.6773 128.125 27.4087C128.511 28.1332 128.791 28.6368 128.963 28.9197C129.219 29.3682 129.485 29.696 129.76 29.903C130.036 30.11 130.378 30.2135 130.785 30.2135C131.013 30.2135 131.237 30.1651 131.458 30.0685C131.299 30.317 131.037 30.5343 130.671 30.7206C130.305 30.9069 129.919 31 129.512 31C128.904 31 128.422 30.8793 128.063 30.6378C127.711 30.3963 127.393 29.9789 127.111 29.3855C126.987 29.1302 126.856 28.8231 126.718 28.4644C126.58 28.0986 126.425 27.6709 126.252 27.181C126.079 26.6911 125.952 26.3324 125.869 26.1046C125.793 25.8769 125.697 25.701 125.579 25.5768C125.469 25.4457 125.282 25.3456 125.02 25.2767C124.593 25.739 124.013 26.4151 123.281 27.3052C122.557 28.2021 122.112 28.8335 121.946 29.1992C121.933 29.1923 121.909 29.1819 121.874 29.1681C121.846 29.1543 121.798 29.1164 121.729 29.0543C121.66 28.9991 121.598 28.937 121.543 28.868C121.488 28.8059 121.439 28.7231 121.398 28.6196C121.35 28.5092 121.325 28.3919 121.325 28.2677ZM131.323 27.6053C131.323 26.9912 131.472 26.3427 131.768 25.6596C132.216 24.6315 132.851 23.669 133.672 22.7721C134.5 21.8682 135.377 21.161 136.301 20.6504C137.233 20.1329 138.081 19.8742 138.847 19.8742C139.579 19.8742 139.945 20.2054 139.945 20.8677V21.0126C139.772 20.8746 139.502 20.8056 139.137 20.8056C138.316 20.8056 137.202 21.5543 135.794 23.0515C135.159 23.7139 134.549 24.5522 133.962 25.5664C133.376 26.5738 133.082 27.3604 133.082 27.9262C133.082 28.2367 133.217 28.3919 133.486 28.3919C133.707 28.3919 134.018 28.2298 134.418 27.9055C134.825 27.5812 135.249 27.1707 135.691 26.6738C136.139 26.1771 136.553 25.701 136.932 25.2456C137.312 24.7833 137.66 24.3452 137.978 23.9312C138.296 23.5172 138.457 23.3068 138.464 23.2999C138.492 23.2654 138.813 22.8238 139.427 21.9752C140.048 21.1265 140.39 20.6711 140.451 20.609C140.693 20.3468 140.89 20.1605 141.041 20.0501C141.193 19.9329 141.366 19.8742 141.559 19.8742C141.862 19.8742 142.125 19.957 142.345 20.1226C142.566 20.2813 142.784 20.5435 142.997 20.9091C142.687 21.1576 142.152 21.7095 141.393 22.5651C141.11 22.8894 140.803 23.262 140.472 23.6828C140.148 24.1037 139.799 24.5833 139.427 25.1215C139.061 25.6527 138.758 26.1805 138.516 26.7049C138.282 27.2293 138.164 27.664 138.164 28.009C138.164 28.4782 138.365 28.7127 138.764 28.7127C139.165 28.7127 139.689 28.4851 140.338 28.0297C140.993 27.5743 141.617 27.043 142.211 26.4358C142.811 25.8287 143.343 25.2525 143.805 24.7075C144.267 24.1624 144.571 23.7656 144.715 23.5172C144.805 23.5586 144.857 23.6449 144.871 23.776C144.884 23.9071 144.854 24.0312 144.778 24.1486C144.709 24.259 144.529 24.4867 144.239 24.8317C143.957 25.1766 143.567 25.6044 143.07 26.115C142.58 26.6256 142.07 27.112 141.538 27.5743C141.007 28.0366 140.441 28.4333 139.841 28.7645C139.241 29.0957 138.716 29.2613 138.268 29.2613C137.806 29.2613 137.446 29.1233 137.191 28.8473C136.936 28.5713 136.808 28.178 136.808 27.6675C136.808 27.2328 136.874 26.805 137.005 26.3841C137.143 25.9632 137.34 25.4802 137.595 24.9351C137.581 24.9489 137.488 25.0731 137.316 25.3077C137.15 25.5354 137.029 25.6976 136.953 25.7942C136.884 25.8907 136.746 26.0701 136.539 26.3324C136.339 26.5876 136.177 26.7842 136.053 26.9223C135.929 27.0603 135.756 27.25 135.535 27.4915C135.321 27.7261 135.132 27.9124 134.966 28.0504C134.807 28.1884 134.618 28.3436 134.397 28.5161C134.183 28.6886 133.983 28.8231 133.797 28.9197C133.617 29.0163 133.424 29.0957 133.217 29.1578C133.017 29.2268 132.824 29.2613 132.637 29.2613C132.216 29.2613 131.892 29.1164 131.665 28.8266C131.437 28.5368 131.323 28.1297 131.323 27.6053ZM142.118 28.009C142.118 27.7192 142.231 27.357 142.459 26.9223C142.694 26.4807 142.949 26.0701 143.225 25.6907C143.508 25.3112 143.763 24.9041 143.991 24.4694C144.226 24.0278 144.343 23.6621 144.343 23.3724C144.681 23.5035 144.978 23.6932 145.233 23.9416C145.488 24.19 145.616 24.4521 145.616 24.7282C145.616 24.9834 145.506 25.287 145.285 25.6389C145.064 25.9839 144.819 26.2978 144.55 26.5807C144.288 26.8636 144.046 27.1569 143.825 27.4605C143.605 27.7571 143.494 27.9883 143.494 28.1539C143.494 28.3678 143.601 28.4747 143.815 28.4747C144.325 28.4747 145.164 28.0193 146.33 27.1085C147.503 26.1978 148.479 25.2974 149.259 24.4073C148.976 24.5039 148.603 24.5522 148.141 24.5522C147.734 24.5522 147.396 24.4521 147.127 24.2521C146.858 24.052 146.723 23.7794 146.723 23.4344C146.723 22.8273 146.975 22.2373 147.479 21.6647C147.989 21.0851 148.659 20.6159 149.486 20.2571C150.322 19.8983 151.188 19.719 152.084 19.719C153.244 19.719 154.02 20.0812 154.413 20.8056C153.937 21.5853 153.133 22.8411 152.001 24.5729C151.408 25.4837 150.97 26.2185 150.687 26.7773C150.404 27.3293 150.263 27.7813 150.263 28.1332C150.263 28.3125 150.315 28.4678 150.418 28.5989C150.521 28.73 150.673 28.7956 150.874 28.7956C151.177 28.7956 151.412 28.7231 151.578 28.5782C151.274 29.006 150.891 29.2199 150.429 29.2199C149.953 29.2199 149.587 29.0888 149.331 28.8266C149.076 28.5575 148.949 28.1849 148.949 27.7088C148.949 27.419 148.993 27.1189 149.083 26.8084C149.173 26.491 149.335 26.1081 149.569 25.6596C149.804 25.2111 150.018 24.8213 150.211 24.4901C150.411 24.152 150.732 23.6276 151.174 22.9169C151.615 22.2063 151.974 21.6164 152.25 21.1472C152.381 20.9264 152.447 20.7401 152.447 20.5883C152.447 20.3192 152.205 20.1847 151.722 20.1847C151.226 20.1847 150.712 20.3709 150.18 20.7436C149.649 21.1161 149.214 21.5646 148.876 22.089C148.538 22.6134 148.369 23.0964 148.369 23.5379C148.369 23.876 148.597 24.0451 149.052 24.0451C149.148 24.0451 149.256 24.0382 149.373 24.0243C149.497 24.0037 149.597 23.9864 149.673 23.9726L149.776 23.9416C149.804 24.0106 149.818 24.0865 149.818 24.1693C149.818 24.259 149.787 24.3452 149.725 24.428C149.304 24.9386 148.814 25.4629 148.255 26.0011C147.703 26.5324 147.131 27.0361 146.537 27.5122C145.944 27.9814 145.354 28.3678 144.768 28.6714C144.187 28.968 143.701 29.1164 143.308 29.1164C142.949 29.1164 142.659 29.0198 142.438 28.8266C142.225 28.6265 142.118 28.354 142.118 28.009Z" fill="#A11CAF"/>
</svg>
