<svg viewBox="0 0 138 67" fill="none" xmlns="http://www.w3.org/2000/svg">
<path d="M4.81601 58.9596C3.72801 58.9596 2.88499 59.2476 2.28799 59.8236C1.70099 60.3886 1.40802 61.1726 1.40802 62.1756C1.40802 63.1786 1.70099 63.9676 2.28799 64.5436C2.88499 65.1086 3.72801 65.3916 4.81601 65.3916C5.90401 65.3916 6.741 65.1086 7.328 64.5436C7.925 63.9676 8.224 63.1786 8.224 62.1756C8.224 61.1726 7.925 60.3886 7.328 59.8236C6.741 59.2476 5.90401 58.9596 4.81601 58.9596ZM4.81601 57.8716C5.50901 57.8716 6.14902 57.9676 6.73602 58.1596C7.32302 58.3406 7.82901 58.6186 8.25601 58.9916C8.69301 59.3546 9.02901 59.8026 9.26401 60.3356C9.50901 60.8686 9.63202 61.4826 9.63202 62.1756C9.63202 62.8686 9.50901 63.4826 9.26401 64.0156C9.02901 64.5486 8.69301 64.9966 8.25601 65.3596C7.82901 65.7226 7.32302 65.9946 6.73602 66.1756C6.14902 66.3466 5.50901 66.4316 4.81601 66.4316C4.12301 66.4316 3.483 66.3466 2.896 66.1756C2.309 65.9946 1.79702 65.7226 1.36002 65.3596C0.933016 64.9966 0.59702 64.5486 0.35202 64.0156C0.11702 63.4826 0 62.8686 0 62.1756C0 61.4826 0.11702 60.8686 0.35202 60.3356C0.59702 59.8026 0.933016 59.3546 1.36002 58.9916C1.79702 58.6186 2.309 58.3406 2.896 58.1596C3.483 57.9676 4.12301 57.8716 4.81601 57.8716ZM12.235 65.6476C12.235 65.4236 12.31 65.2366 12.459 65.0876C12.619 64.9276 12.811 64.8476 13.035 64.8476C13.259 64.8476 13.446 64.9276 13.595 65.0876C13.755 65.2366 13.835 65.4236 13.835 65.6476C13.835 65.8716 13.755 66.0526 13.595 66.1916C13.446 66.3306 13.259 66.3996 13.035 66.3996C12.811 66.3996 12.619 66.3306 12.459 66.1916C12.31 66.0526 12.235 65.8716 12.235 65.6476ZM29.616 64.2716V58.5436C29.616 58.4266 29.589 58.3356 29.536 58.2716C29.483 58.1966 29.381 58.1596 29.232 58.1596V57.9676H31.152V58.1596C31.003 58.1596 30.901 58.1966 30.848 58.2716C30.795 58.3356 30.768 58.4266 30.768 58.5436V65.8076C30.768 65.9246 30.795 66.0206 30.848 66.0956C30.901 66.1596 31.003 66.1916 31.152 66.1916V66.3836H29.104V66.1916C29.317 66.1916 29.424 66.1486 29.424 66.0636C29.424 65.9886 29.403 65.9306 29.36 65.8876C29.317 65.8346 29.285 65.7916 29.264 65.7596L23.568 59.2796V65.8076C23.568 65.9246 23.595 66.0206 23.648 66.0956C23.701 66.1596 23.803 66.1916 23.952 66.1916V66.3836H22.032V66.1916C22.181 66.1916 22.283 66.1596 22.336 66.0956C22.389 66.0206 22.416 65.9246 22.416 65.8076V58.5436C22.416 58.4266 22.389 58.3356 22.336 58.2716C22.283 58.1966 22.181 58.1596 22.032 58.1596V57.9676H24.736V58.1596C24.619 58.1596 24.539 58.1756 24.496 58.2076C24.453 58.2286 24.432 58.2716 24.432 58.3356C24.432 58.3676 24.443 58.4046 24.464 58.4476C24.496 58.4796 24.528 58.5116 24.56 58.5436L29.584 64.2716H29.616ZM37.717 60.1436C37.259 60.1436 36.843 60.2126 36.469 60.3516C36.107 60.4906 35.797 60.6826 35.541 60.9276C35.285 61.1726 35.088 61.4606 34.949 61.7916C34.811 62.1226 34.741 62.4746 34.741 62.8476C34.741 63.2316 34.811 63.5886 34.949 63.9196C35.088 64.2506 35.285 64.5386 35.541 64.7836C35.797 65.0286 36.107 65.2266 36.469 65.3756C36.843 65.5146 37.259 65.5836 37.717 65.5836C38.176 65.5836 38.587 65.5146 38.949 65.3756C39.323 65.2266 39.637 65.0286 39.893 64.7836C40.149 64.5386 40.347 64.2506 40.485 63.9196C40.624 63.5886 40.693 63.2316 40.693 62.8476C40.693 62.4746 40.624 62.1226 40.485 61.7916C40.347 61.4606 40.149 61.1726 39.893 60.9276C39.637 60.6826 39.323 60.4906 38.949 60.3516C38.587 60.2126 38.176 60.1436 37.717 60.1436ZM37.717 59.2476C38.336 59.2476 38.891 59.3436 39.381 59.5356C39.883 59.7276 40.309 59.9886 40.661 60.3196C41.013 60.6396 41.28 61.0186 41.461 61.4556C41.653 61.8926 41.749 62.3626 41.749 62.8636C41.749 63.3646 41.653 63.8346 41.461 64.2716C41.28 64.7086 41.013 65.0926 40.661 65.4236C40.309 65.7436 39.883 65.9946 39.381 66.1756C38.891 66.3466 38.336 66.4316 37.717 66.4316C37.099 66.4316 36.539 66.3466 36.037 66.1756C35.547 65.9946 35.125 65.7436 34.773 65.4236C34.421 65.0926 34.149 64.7086 33.957 64.2716C33.776 63.8346 33.685 63.3646 33.685 62.8636C33.685 62.3626 33.776 61.8926 33.957 61.4556C34.149 61.0186 34.421 60.6396 34.773 60.3196C35.125 59.9886 35.547 59.7276 36.037 59.5356C36.539 59.3436 37.099 59.2476 37.717 59.2476ZM44.779 59.3436V59.5356C44.683 59.5246 44.597 59.5406 44.523 59.5836C44.448 59.6266 44.411 59.7006 44.411 59.8076C44.411 59.8606 44.432 59.9246 44.475 59.9996C44.517 60.0746 44.555 60.1546 44.587 60.2396L46.859 65.0876L48.939 60.1116C48.96 60.0586 48.981 59.9996 49.003 59.9356C49.024 59.8716 49.035 59.8186 49.035 59.7756C49.035 59.6156 48.917 59.5356 48.683 59.5356V59.3436H50.315V59.5356C50.176 59.5356 50.069 59.6206 49.995 59.7916L47.547 65.5996C47.525 65.6526 47.499 65.7166 47.467 65.7916C47.435 65.8666 47.419 65.9306 47.419 65.9836C47.419 66.1326 47.536 66.2026 47.771 66.1916V66.3836H45.915V66.1916C46.107 66.1916 46.203 66.1436 46.203 66.0476C46.203 65.9836 46.181 65.9036 46.139 65.8076C46.096 65.7006 46.037 65.5676 45.963 65.4076L43.371 59.8556C43.317 59.7486 43.253 59.6686 43.179 59.6156C43.115 59.5626 43.019 59.5356 42.891 59.5356V59.3436H44.779ZM55.499 60.1436C55.04 60.1436 54.624 60.2126 54.251 60.3516C53.888 60.4906 53.579 60.6826 53.323 60.9276C53.067 61.1726 52.869 61.4606 52.731 61.7916C52.592 62.1226 52.523 62.4746 52.523 62.8476C52.523 63.2316 52.592 63.5886 52.731 63.9196C52.869 64.2506 53.067 64.5386 53.323 64.7836C53.579 65.0286 53.888 65.2266 54.251 65.3756C54.624 65.5146 55.04 65.5836 55.499 65.5836C55.957 65.5836 56.368 65.5146 56.731 65.3756C57.104 65.2266 57.419 65.0286 57.675 64.7836C57.931 64.5386 58.128 64.2506 58.267 63.9196C58.405 63.5886 58.475 63.2316 58.475 62.8476C58.475 62.4746 58.405 62.1226 58.267 61.7916C58.128 61.4606 57.931 61.1726 57.675 60.9276C57.419 60.6826 57.104 60.4906 56.731 60.3516C56.368 60.2126 55.957 60.1436 55.499 60.1436ZM55.499 59.2476C56.117 59.2476 56.672 59.3436 57.163 59.5356C57.664 59.7276 58.091 59.9886 58.443 60.3196C58.795 60.6396 59.061 61.0186 59.243 61.4556C59.435 61.8926 59.531 62.3626 59.531 62.8636C59.531 63.3646 59.435 63.8346 59.243 64.2716C59.061 64.7086 58.795 65.0926 58.443 65.4236C58.091 65.7436 57.664 65.9946 57.163 66.1756C56.672 66.3466 56.117 66.4316 55.499 66.4316C54.88 66.4316 54.32 66.3466 53.819 66.1756C53.328 65.9946 52.907 65.7436 52.555 65.4236C52.203 65.0926 51.931 64.7086 51.739 64.2716C51.557 63.8346 51.467 63.3646 51.467 62.8636C51.467 62.3626 51.557 61.8926 51.739 61.4556C51.931 61.0186 52.203 60.6396 52.555 60.3196C52.907 59.9886 53.328 59.7276 53.819 59.5356C54.32 59.3436 54.88 59.2476 55.499 59.2476ZM62.192 59.9836C62.192 59.8026 62.165 59.6846 62.112 59.6316C62.069 59.5676 61.962 59.5356 61.792 59.5356V59.3436H65.664C66.293 59.3436 66.837 59.4346 67.296 59.6156C67.754 59.7966 68.128 60.0476 68.416 60.3676C68.714 60.6766 68.933 61.0446 69.072 61.4716C69.21 61.8986 69.28 62.3626 69.28 62.8636C69.28 63.3546 69.21 63.8186 69.072 64.2556C68.933 64.6826 68.714 65.0556 68.416 65.3756C68.128 65.6846 67.754 65.9306 67.296 66.1116C66.837 66.2926 66.293 66.3836 65.664 66.3836H61.792V66.1916C61.962 66.1916 62.069 66.1646 62.112 66.1116C62.165 66.0476 62.192 65.9246 62.192 65.7436V59.9836ZM65.472 65.4876C65.973 65.4876 66.394 65.4186 66.736 65.2796C67.088 65.1406 67.37 64.9546 67.584 64.7196C67.808 64.4746 67.968 64.1966 68.064 63.8876C68.17 63.5676 68.224 63.2266 68.224 62.8636C68.224 62.5006 68.17 62.1646 68.064 61.8556C67.968 61.5356 67.808 61.2586 67.584 61.0236C67.37 60.7786 67.088 60.5866 66.736 60.4476C66.394 60.3086 65.973 60.2396 65.472 60.2396H63.184V65.4876H65.472ZM71.493 60.2396C71.333 60.2396 71.226 60.2716 71.173 60.3356C71.12 60.3886 71.093 60.4846 71.093 60.6236H70.901V58.9596H71.093C71.093 59.0986 71.12 59.1996 71.173 59.2636C71.226 59.3166 71.333 59.3436 71.493 59.3436H77.333V59.4716L72.709 65.4876H76.709C76.88 65.4876 76.992 65.4606 77.045 65.4076C77.098 65.3436 77.125 65.2426 77.125 65.1036H77.317V66.7196H77.125C77.125 66.5806 77.098 66.4906 77.045 66.4476C76.992 66.4046 76.885 66.3836 76.725 66.3836H70.949V66.2556L75.461 60.2396H71.493ZM79.925 66.1916C80.096 66.1916 80.202 66.1646 80.245 66.1116C80.298 66.0476 80.325 65.9246 80.325 65.7436V59.9836C80.325 59.8026 80.298 59.6846 80.245 59.6316C80.202 59.5676 80.096 59.5356 79.925 59.5356V59.3436H81.717V59.5356C81.546 59.5356 81.434 59.5676 81.381 59.6316C81.338 59.6846 81.317 59.8026 81.317 59.9836V65.7436C81.317 65.9246 81.338 66.0476 81.381 66.1116C81.434 66.1646 81.546 66.1916 81.717 66.1916V66.3836H79.925V66.1916ZM84.965 66.1916C85.136 66.1916 85.248 66.1646 85.301 66.1116C85.365 66.0476 85.397 65.9246 85.397 65.7436V59.9836C85.397 59.8026 85.365 59.6846 85.301 59.6316C85.248 59.5676 85.136 59.5356 84.965 59.5356V59.3436H87.301V59.5356C87.13 59.5356 87.013 59.5516 86.949 59.5836C86.896 59.6046 86.869 59.6366 86.869 59.6796C86.869 59.7116 86.928 59.8026 87.045 59.9516L91.381 64.9276V59.9836C91.381 59.8026 91.349 59.6846 91.285 59.6316C91.232 59.5676 91.12 59.5356 90.949 59.5356V59.3436H92.709V59.5356C92.538 59.5356 92.421 59.5676 92.357 59.6316C92.304 59.6846 92.277 59.8026 92.277 59.9836V65.7436C92.277 65.9246 92.304 66.0476 92.357 66.1116C92.421 66.1646 92.538 66.1916 92.709 66.1916V66.3836H90.565V66.1916C90.778 66.1916 90.906 66.1806 90.949 66.1596C90.992 66.1386 91.013 66.1006 91.013 66.0476C91.013 65.9946 90.992 65.9516 90.949 65.9196C90.917 65.8766 90.874 65.8236 90.821 65.7596L86.293 60.5916V65.7436C86.293 65.9246 86.32 66.0476 86.373 66.1116C86.437 66.1646 86.554 66.1916 86.725 66.1916V66.3836H84.965V66.1916ZM95.845 64.4156C95.824 64.5226 95.813 64.5916 95.813 64.6236C95.813 64.7086 95.893 64.8106 96.053 64.9276C96.224 65.0346 96.442 65.1356 96.709 65.2316C96.986 65.3276 97.301 65.4126 97.653 65.4876C98.016 65.5516 98.389 65.5836 98.773 65.5836C99.509 65.5836 100.08 65.4876 100.485 65.2956C100.901 65.0926 101.109 64.8106 101.109 64.4476C101.109 64.1066 100.965 63.8666 100.677 63.7276C100.4 63.5886 100.048 63.4926 99.621 63.4396C99.194 63.3756 98.73 63.3326 98.229 63.3116C97.738 63.2796 97.28 63.2106 96.853 63.1036C96.426 62.9966 96.069 62.8206 95.781 62.5756C95.504 62.3306 95.365 61.9626 95.365 61.4716C95.365 61.0666 95.445 60.7246 95.605 60.4476C95.776 60.1596 96 59.9306 96.277 59.7596C96.554 59.5786 96.874 59.4506 97.237 59.3756C97.61 59.2906 97.994 59.2476 98.389 59.2476C98.805 59.2476 99.173 59.2796 99.493 59.3436C99.813 59.3966 100.085 59.4606 100.309 59.5356C100.544 59.6106 100.73 59.6796 100.869 59.7436C101.008 59.7966 101.109 59.8236 101.173 59.8236C101.226 59.8236 101.269 59.8126 101.301 59.7916C101.333 59.7596 101.376 59.6956 101.429 59.5996L101.637 59.6796L101.045 61.2476L100.853 61.1676C100.864 61.1466 100.869 61.1246 100.869 61.1036C100.88 61.0716 100.885 61.0286 100.885 60.9756C100.885 60.8906 100.81 60.7996 100.661 60.7036C100.522 60.6076 100.33 60.5166 100.085 60.4316C99.85 60.3466 99.578 60.2766 99.269 60.2236C98.97 60.1706 98.661 60.1436 98.341 60.1436C97.925 60.1436 97.589 60.1806 97.333 60.2556C97.077 60.3196 96.874 60.4106 96.725 60.5276C96.586 60.6346 96.49 60.7626 96.437 60.9116C96.384 61.0506 96.357 61.1946 96.357 61.3436C96.357 61.6526 96.496 61.8766 96.773 62.0156C97.061 62.1436 97.418 62.2346 97.845 62.2876C98.272 62.3406 98.73 62.3836 99.221 62.4156C99.722 62.4366 100.186 62.5006 100.613 62.6076C101.04 62.7146 101.392 62.8906 101.669 63.1356C101.957 63.3706 102.101 63.7276 102.101 64.2076C102.101 64.9756 101.824 65.5406 101.269 65.9036C100.725 66.2556 99.84 66.4316 98.613 66.4316C98.197 66.4316 97.818 66.4046 97.477 66.3516C97.136 66.2876 96.832 66.2186 96.565 66.1436C96.309 66.0586 96.09 65.9836 95.909 65.9196C95.728 65.8446 95.594 65.8076 95.509 65.8076C95.424 65.8076 95.36 65.8346 95.317 65.8876C95.274 65.9406 95.242 65.9946 95.221 66.0476L95.029 65.9836L95.653 64.3676L95.845 64.4156ZM105.952 65.7436C105.952 65.9246 105.973 66.0476 106.016 66.1116C106.069 66.1646 106.181 66.1916 106.352 66.1916V66.3836H104.56V66.1916C104.73 66.1916 104.837 66.1646 104.88 66.1116C104.933 66.0476 104.96 65.9246 104.96 65.7436V59.9836C104.96 59.8026 104.933 59.6846 104.88 59.6316C104.837 59.5676 104.73 59.5356 104.56 59.5356V59.3436H106.352V59.5356C106.181 59.5356 106.069 59.5676 106.016 59.6316C105.973 59.6846 105.952 59.8026 105.952 59.9836V62.4156L109.28 59.9356C109.333 59.9036 109.381 59.8716 109.424 59.8396C109.477 59.7966 109.504 59.7486 109.504 59.6956C109.504 59.5886 109.37 59.5356 109.104 59.5356V59.3436H111.536V59.5356C111.333 59.5356 111.146 59.6046 110.976 59.7436L108.304 61.7596L111.248 65.8236C111.333 65.9406 111.413 66.0316 111.488 66.0956C111.573 66.1596 111.701 66.1916 111.872 66.1916V66.3836H109.84V66.1916C110.021 66.1916 110.133 66.1806 110.176 66.1596C110.218 66.1386 110.24 66.1066 110.24 66.0636C110.24 65.9886 110.176 65.8666 110.048 65.6956L107.552 62.2876L105.952 63.5356V65.7436ZM114.73 63.4076H117.85L116.234 60.0476L114.73 63.4076ZM112.25 66.1916C112.421 66.1916 112.533 66.1546 112.586 66.0796C112.65 66.0046 112.709 65.9086 112.762 65.7916L115.29 59.9996C115.344 59.8716 115.37 59.7806 115.37 59.7276C115.37 59.6746 115.338 59.6266 115.274 59.5836C115.221 59.5406 115.12 59.5146 114.97 59.5036V59.3436H117.562V59.5356C117.477 59.5356 117.392 59.5516 117.306 59.5836C117.232 59.6046 117.194 59.6526 117.194 59.7276C117.194 59.7806 117.205 59.8346 117.226 59.8876C117.258 59.9406 117.285 59.9946 117.306 60.0476L120.042 65.8716C120.074 65.9466 120.122 66.0206 120.186 66.0956C120.25 66.1596 120.368 66.1916 120.538 66.1916V66.3836H118.522V66.1916C118.714 66.1916 118.842 66.1756 118.906 66.1436C118.97 66.1116 119.002 66.0636 119.002 65.9996C119.002 65.9246 118.992 65.8606 118.97 65.8076C118.949 65.7546 118.928 65.7006 118.906 65.6476L118.25 64.3036H114.362L113.818 65.5196C113.776 65.6156 113.728 65.7066 113.674 65.7916C113.632 65.8766 113.61 65.9466 113.61 65.9996C113.61 66.0636 113.642 66.1116 113.706 66.1436C113.77 66.1756 113.882 66.1916 114.042 66.1916V66.3836H112.25V66.1916ZM123.797 66.1916C123.936 66.1916 124.026 66.1646 124.069 66.1116C124.112 66.0476 124.133 65.9246 124.133 65.7436V63.4716L121.685 59.9516C121.61 59.8446 121.514 59.7486 121.397 59.6636C121.29 59.5786 121.178 59.5356 121.061 59.5356V59.3436H123.045V59.5356C122.832 59.5356 122.725 59.5886 122.725 59.6956C122.725 59.7486 122.746 59.8076 122.789 59.8716C122.832 59.9246 122.869 59.9726 122.901 60.0156L124.709 62.5916L126.757 59.9996C126.874 59.8506 126.933 59.7486 126.933 59.6956C126.933 59.6316 126.912 59.5886 126.869 59.5676C126.837 59.5466 126.757 59.5356 126.629 59.5356V59.3436H128.613V59.5356C128.432 59.5356 128.298 59.5836 128.213 59.6796C128.128 59.7646 128.005 59.9086 127.845 60.1116L125.189 63.4716V65.7436C125.189 65.9246 125.21 66.0476 125.253 66.1116C125.306 66.1646 125.418 66.1916 125.589 66.1916V66.3836H123.797V66.1916ZM131.621 63.4076H134.741L133.125 60.0476L131.621 63.4076ZM129.141 66.1916C129.312 66.1916 129.424 66.1546 129.477 66.0796C129.541 66.0046 129.6 65.9086 129.653 65.7916L132.181 59.9996C132.234 59.8716 132.261 59.7806 132.261 59.7276C132.261 59.6746 132.229 59.6266 132.165 59.5836C132.112 59.5406 132.01 59.5146 131.861 59.5036V59.3436H134.453V59.5356C134.368 59.5356 134.282 59.5516 134.197 59.5836C134.122 59.6046 134.085 59.6526 134.085 59.7276C134.085 59.7806 134.096 59.8346 134.117 59.8876C134.149 59.9406 134.176 59.9946 134.197 60.0476L136.933 65.8716C136.965 65.9466 137.013 66.0206 137.077 66.0956C137.141 66.1596 137.258 66.1916 137.429 66.1916V66.3836H135.413V66.1916C135.605 66.1916 135.733 66.1756 135.797 66.1436C135.861 66.1116 135.893 66.0636 135.893 65.9996C135.893 65.9246 135.882 65.8606 135.861 65.8076C135.84 65.7546 135.818 65.7006 135.797 65.6476L135.141 64.3036H131.253L130.709 65.5196C130.666 65.6156 130.618 65.7066 130.565 65.7916C130.522 65.8766 130.501 65.9466 130.501 65.9996C130.501 66.0636 130.533 66.1116 130.597 66.1436C130.661 66.1756 130.773 66.1916 130.933 66.1916V66.3836H129.141V66.1916Z" fill="#A11CAF"/>
<path d="M85.0391 47.3836V43.8916C85.0391 42.5656 84.1681 41.3966 82.8971 41.0176C80.7461 40.3756 77.4061 39.3796 74.9341 38.6416M85.0391 47.3836V4.00459C85.0391 1.60559 82.362 0.177582 80.369 1.51258L62.3091 13.6136C61.4781 14.1706 60.9791 15.1056 60.9791 16.1056V27.5726M85.0391 47.3836C81.0561 47.3836 77.9351 47.3836 75.0391 47.3836M74.9341 38.6416C74.9341 34.3966 74.9341 28.7916 74.9341 24.7636C74.9341 22.4596 72.4451 21.0186 70.4451 22.1616C64.8881 25.3376 60.6501 27.7606 54.5511 31.2466C53.6161 31.7806 53.0391 32.7756 53.0391 33.8516V44.3836C53.0391 46.0406 54.3821 47.3836 56.0391 47.3836H60.9791C66.6711 47.3836 70.5881 47.3836 75.0391 47.3836M74.9341 38.6416L75.0391 47.3836M74.9341 38.6416C74.9341 38.6416 57.4851 33.0026 53.5391 31.8246" stroke="#A11CAF"/>
</svg>
