<svg width="46" height="47" viewBox="0 0 46 47" fill="none" xmlns="http://www.w3.org/2000/svg">
<path d="M33.9947 28.1212L29.3449 32.4112C26.9539 34.5026 24.1449 36.0567 21.1061 36.969L22.3398 42.7449C22.4029 43.0398 22.5341 43.3157 22.723 43.5503C22.9119 43.7849 23.1531 43.9717 23.4272 44.0956C23.7013 44.2194 24.0006 44.2768 24.3009 44.2633C24.6011 44.2497 24.894 44.1654 25.1559 44.0173L32.641 39.7811C33.6945 39.1388 34.5174 38.1773 34.9911 37.0354C35.4647 35.8934 35.5647 34.63 35.2764 33.4273L33.9947 28.1212ZM13.9254 16.878L17.9287 12.1086L12.9362 10.8999C11.7224 10.4752 10.3965 10.5056 9.20336 10.9854C8.0102 11.4653 7.03041 12.3622 6.44494 13.5104L2.22791 21.0108C2.08015 21.2735 1.99606 21.5675 1.98244 21.8688C1.96881 22.1702 2.02604 22.4705 2.14948 22.7456C2.27293 23.0206 2.45913 23.2627 2.69305 23.4522C2.92697 23.6417 3.20203 23.7733 3.49602 23.8364L9.38545 25.1033C10.3618 22.0959 11.9029 19.3039 13.9254 16.878ZM32.0726 16.9556C32.6412 16.9556 33.1971 16.7864 33.6698 16.4694C34.1426 16.1524 34.5111 15.7019 34.7287 15.1748C34.9463 14.6476 35.0033 14.0676 34.8923 13.508C34.7814 12.9484 34.5076 12.4343 34.1055 12.0309C33.7034 11.6274 33.1912 11.3527 32.6335 11.2414C32.0758 11.13 31.4977 11.1872 30.9724 11.4055C30.447 11.6239 29.998 11.9936 29.6821 12.468C29.3662 12.9425 29.1976 13.5002 29.1976 14.0708C29.1979 14.8358 29.5008 15.5694 30.04 16.1104C30.5791 16.6513 31.3102 16.9553 32.0726 16.9556Z" fill="#E8CEE8"/>
<path d="M43.3186 3.96581C43.2321 3.6364 43.0601 3.33592 42.82 3.09505C42.58 2.85417 42.2805 2.68153 41.9523 2.59476C38.0205 1.56923 33.88 1.67919 30.0078 2.91199C26.1356 4.14479 22.6893 6.45025 20.0659 9.56274L13.9257 16.8781C10.8583 20.5493 8.91234 25.0309 8.32169 29.7848C8.28381 30.077 8.3133 30.374 8.4079 30.6529C8.50249 30.9318 8.65966 31.1852 8.86729 31.3935L14.8091 37.3557C14.987 37.5343 15.1983 37.676 15.4308 37.7727C15.6633 37.8694 15.9125 37.9192 16.1642 37.9192C16.2194 37.9192 16.2747 37.9163 16.3308 37.9117C21.1412 37.5128 25.6998 35.5862 29.345 32.4115L36.3659 25.9337C39.4788 23.3083 41.7847 19.85 43.0156 15.961C44.2464 12.072 44.3515 7.91235 43.3186 3.96581ZM32.0728 16.9557C31.5042 16.9557 30.9484 16.7865 30.4756 16.4695C30.0028 16.1526 29.6343 15.702 29.4167 15.1749C29.1991 14.6477 29.1421 14.0677 29.2531 13.5081C29.364 12.9485 29.6378 12.4344 30.0399 12.031C30.442 11.6275 30.9543 11.3528 31.5119 11.2415C32.0696 11.1302 32.6477 11.1873 33.173 11.4056C33.6984 11.624 34.1474 11.9937 34.4633 12.4682C34.7792 12.9426 34.9478 13.5003 34.9478 14.0709C34.9476 14.8359 34.6446 15.5695 34.1055 16.1105C33.5664 16.6514 32.8352 16.9555 32.0728 16.9557Z" fill="#FF9383"/>
</svg>
