<svg width="61" height="61" viewBox="0 0 61 61" fill="none" xmlns="http://www.w3.org/2000/svg">
<path d="M15.0541 41.9039C13.3173 41.9039 11.6194 41.3826 10.1753 40.4059C8.73115 39.4292 7.60559 38.041 6.94093 36.4168C6.27627 34.7926 6.10236 33.0053 6.4412 31.2811C6.78004 29.5568 7.61641 27.973 8.84454 26.7299C10.0727 25.4868 11.6374 24.6402 13.3409 24.2973C15.0444 23.9543 16.81 24.1303 18.4147 24.8031C20.0193 25.4758 21.3908 26.6151 22.3557 28.0769C23.3207 29.5386 23.8357 31.2572 23.8357 33.0152C23.8329 35.3718 22.9068 37.631 21.2605 39.2973C19.6143 40.9637 17.3823 41.9011 15.0541 41.9039Z" fill="#E8CEE8"/>
<path d="M21.6785 38.7847C20.8655 39.7617 19.8513 40.5471 18.7071 41.0859C17.5628 41.6247 16.316 41.9039 15.054 41.9039C13.7919 41.9039 12.5452 41.6247 11.4009 41.0859C10.2566 40.5471 9.24247 39.7617 8.42946 38.7847C6.62293 39.9184 5.13142 41.4991 4.09555 43.3778C3.05969 45.2565 2.5136 47.3713 2.50879 49.5228C2.50879 50.1964 2.77313 50.8423 3.24367 51.3186C3.7142 51.7949 4.35239 52.0624 5.01783 52.0624H25.0901C25.7556 52.0624 26.3937 51.7949 26.8643 51.3186C27.3348 50.8423 27.5991 50.1964 27.5991 49.5228C27.5943 47.3713 27.0483 45.2565 26.0124 43.3778C24.9765 41.4991 23.485 39.9184 21.6785 38.7847V38.7847ZM45.1624 41.9039C43.4256 41.9039 41.7277 41.3826 40.2836 40.4059C38.8395 39.4292 37.7139 38.041 37.0492 36.4168C36.3846 34.7926 36.2107 33.0053 36.5495 31.2811C36.8884 29.5568 37.7247 27.973 38.9529 26.7299C40.181 25.4868 41.7457 24.6402 43.4492 24.2973C45.1527 23.9543 46.9184 24.1303 48.523 24.8031C50.1276 25.4758 51.4991 26.6151 52.4641 28.0769C53.429 29.5386 53.944 31.2572 53.944 33.0152C53.9412 35.3717 53.0151 37.631 51.3688 39.2973C49.7226 40.9637 47.4906 41.9011 45.1624 41.9039Z" fill="#FF9383"/>
<path d="M51.7869 38.7847C50.9739 39.7617 49.9597 40.5471 48.8155 41.0859C47.6712 41.6247 46.4244 41.9038 45.1624 41.9038C43.9003 41.9038 42.6536 41.6247 41.5093 41.0859C40.365 40.5471 39.3509 39.7617 38.5379 38.7847C36.7313 39.9184 35.2398 41.4991 34.204 43.3778C33.1681 45.2565 32.622 47.3713 32.6172 49.5228C32.6172 50.1963 32.8815 50.8423 33.3521 51.3186C33.8226 51.7948 34.4608 52.0624 35.1262 52.0624H55.1985C55.864 52.0624 56.5021 51.7948 56.9727 51.3186C57.4432 50.8423 57.7076 50.1963 57.7076 49.5228C57.7027 47.3713 57.1567 45.2565 56.1208 43.3778C55.0849 41.4991 53.5934 39.9184 51.7869 38.7847V38.7847Z" fill="#E8CEE8"/>
<path d="M43.1728 14.7122L38.1547 9.63292C37.6828 9.16383 37.0469 8.90235 36.3855 8.90538C35.7241 8.90841 35.0906 9.17571 34.6229 9.64911C34.1552 10.1225 33.8911 10.7637 33.8881 11.4332C33.8852 12.1027 34.1435 12.7463 34.6069 13.224L35.3421 13.9681H24.8745L25.6097 13.224C26.0753 12.7467 26.3354 12.1024 26.3333 11.4317C26.3312 10.761 26.067 10.1184 25.5985 9.64411C25.1299 9.16986 24.495 8.9025 23.8324 8.9004C23.1698 8.89831 22.5332 9.16164 22.0617 9.63292L17.0437 14.7122C16.8106 14.9479 16.6258 15.2279 16.4996 15.536C16.3735 15.8441 16.3086 16.1743 16.3086 16.5078C16.3086 16.8413 16.3735 17.1715 16.4996 17.4796C16.6258 17.7877 16.8106 18.0676 17.0437 18.3034L22.0617 23.3827C22.5332 23.8539 23.1698 24.1172 23.8324 24.1151C24.495 24.113 25.1299 23.8456 25.5985 23.3713C26.067 22.897 26.3311 22.2544 26.3332 21.5837C26.3353 20.913 26.0751 20.2687 25.6095 19.7915L24.8744 19.0473H35.3418L34.6066 19.7915C34.1362 20.2677 33.8719 20.9136 33.8719 21.5871C33.8719 22.2606 34.1363 22.9065 34.6068 23.3827C35.0773 23.8589 35.7154 24.1264 36.3808 24.1263C37.0461 24.1263 37.6842 23.8587 38.1547 23.3825L43.1728 18.3032C43.4058 18.0675 43.5906 17.7876 43.7168 17.4795C43.8429 17.1714 43.9078 16.8412 43.9078 16.5077C43.9078 16.1742 43.8429 15.844 43.7168 15.5359C43.5906 15.2279 43.4058 14.9479 43.1728 14.7122V14.7122Z" fill="#E8CEE8"/>
</svg>
